G04 DipTrace 3.0.0.2*
G04 logo.gbr*
%MOIN*%
G04 #@! TF.FileFunction,Drawing,Top*
G04 #@! TF.Part,Single*
%ADD12C,0.001*%
%FSLAX26Y26*%
G04*
G70*
G90*
G75*
G01*
G04 TopAssy*
%LPD*%
X-1575000Y587000D2*
D12*
X-1558000D1*
X-1575000Y586000D2*
X-1558000D1*
X-1575000Y585000D2*
X-1558000D1*
X-1575000Y584000D2*
X-1558000D1*
X-1575000Y583000D2*
X-1558000D1*
X-1575000Y582000D2*
X-1558000D1*
X-1587000Y581000D2*
X-1558000D1*
X-1587000Y580000D2*
X-1558000D1*
X-1587000Y579000D2*
X-1558000D1*
X-1587000Y578000D2*
X-1558000D1*
X-1587000Y577000D2*
X-1558000D1*
X-1587000Y576000D2*
X-1558000D1*
X-1592000Y575000D2*
X-1558000D1*
X-1592000Y574000D2*
X-1569000D1*
X-1592000Y573000D2*
X-1569000D1*
X-1592000Y572000D2*
X-1569000D1*
X-1592000Y571000D2*
X-1569000D1*
X-1592000Y570000D2*
X-1569000D1*
X-1610000Y569000D2*
X-1569000D1*
X-1610000Y568000D2*
X-1581000D1*
X-1610000Y567000D2*
X-1581000D1*
X-1610000Y566000D2*
X-1581000D1*
X-1610000Y565000D2*
X-1581000D1*
X-1610000Y564000D2*
X-1581000D1*
X-1622000Y563000D2*
X-1581000D1*
X-1622000Y562000D2*
X-1587000D1*
X-1622000Y561000D2*
X-1587000D1*
X-1622000Y560000D2*
X-1587000D1*
X-1622000Y559000D2*
X-1587000D1*
X-1622000Y558000D2*
X-1587000D1*
X-1622000Y557000D2*
X-1592000D1*
X-1575000D2*
X-1523000D1*
X-1622000Y556000D2*
X-1592000D1*
X-1575000D2*
X-1523000D1*
X-1622000Y555000D2*
X-1592000D1*
X-1575000D2*
X-1523000D1*
X-1622000Y554000D2*
X-1592000D1*
X-1575000D2*
X-1523000D1*
X-1622000Y553000D2*
X-1592000D1*
X-1575000D2*
X-1523000D1*
X-1622000Y552000D2*
X-1592000D1*
X-1575000D2*
X-1523000D1*
X-1627000Y551000D2*
X-1592000D1*
X-1581000D2*
X-1517000D1*
X-1627000Y550000D2*
X-1592000D1*
X-1581000D2*
X-1517000D1*
X-1627000Y549000D2*
X-1592000D1*
X-1581000D2*
X-1517000D1*
X-1627000Y548000D2*
X-1592000D1*
X-1581000D2*
X-1517000D1*
X-1627000Y547000D2*
X-1592000D1*
X-1581000D2*
X-1517000D1*
X-1627000Y546000D2*
X-1592000D1*
X-1581000D2*
X-1517000D1*
X-1627000Y545000D2*
X-1592000D1*
X-1581000D2*
X-1517000D1*
X-1627000Y544000D2*
X-1592000D1*
X-1581000D2*
X-1517000D1*
X-1627000Y543000D2*
X-1592000D1*
X-1581000D2*
X-1517000D1*
X-1627000Y542000D2*
X-1592000D1*
X-1581000D2*
X-1517000D1*
X-1627000Y541000D2*
X-1592000D1*
X-1581000D2*
X-1517000D1*
X-1627000Y540000D2*
X-1592000D1*
X-1581000D2*
X-1517000D1*
X-1627000Y539000D2*
X-1592000D1*
X-1581000D2*
X-1563000D1*
X-1534000D2*
X-1517000D1*
X-1498000D2*
X-1440000D1*
X-1423000D2*
X-1405000D1*
X-1358000D2*
X-1311000D1*
X-1276000D2*
X-1223000D1*
X-1206000D2*
X-1159000D1*
X-1135000D2*
X-1118000D1*
X-1100000D2*
X-1088000D1*
X-1059000D2*
X-1042000D1*
X-1018000D2*
X-965000D1*
X-1627000Y538000D2*
X-1592000D1*
X-1581000D2*
X-1563000D1*
X-1534000D2*
X-1517000D1*
X-1498000D2*
X-1440000D1*
X-1423000D2*
X-1405000D1*
X-1358000D2*
X-1311000D1*
X-1276000D2*
X-1223000D1*
X-1206000D2*
X-1159000D1*
X-1135000D2*
X-1118000D1*
X-1100000D2*
X-1088000D1*
X-1059000D2*
X-1042000D1*
X-1018000D2*
X-965000D1*
X-1627000Y537000D2*
X-1592000D1*
X-1581000D2*
X-1563000D1*
X-1534000D2*
X-1517000D1*
X-1498000D2*
X-1440000D1*
X-1423000D2*
X-1405000D1*
X-1358000D2*
X-1311000D1*
X-1276000D2*
X-1223000D1*
X-1206000D2*
X-1159000D1*
X-1135000D2*
X-1118000D1*
X-1100000D2*
X-1088000D1*
X-1059000D2*
X-1042000D1*
X-1018000D2*
X-965000D1*
X-1627000Y536000D2*
X-1592000D1*
X-1581000D2*
X-1563000D1*
X-1534000D2*
X-1517000D1*
X-1498000D2*
X-1440000D1*
X-1423000D2*
X-1405000D1*
X-1358000D2*
X-1311000D1*
X-1276000D2*
X-1223000D1*
X-1206000D2*
X-1159000D1*
X-1135000D2*
X-1118000D1*
X-1100000D2*
X-1088000D1*
X-1059000D2*
X-1042000D1*
X-1018000D2*
X-965000D1*
X-1627000Y535000D2*
X-1592000D1*
X-1581000D2*
X-1563000D1*
X-1534000D2*
X-1517000D1*
X-1498000D2*
X-1440000D1*
X-1423000D2*
X-1405000D1*
X-1358000D2*
X-1311000D1*
X-1276000D2*
X-1223000D1*
X-1206000D2*
X-1159000D1*
X-1135000D2*
X-1118000D1*
X-1100000D2*
X-1088000D1*
X-1059000D2*
X-1042000D1*
X-1018000D2*
X-965000D1*
X-1627000Y534000D2*
X-1592000D1*
X-1581000D2*
X-1563000D1*
X-1534000D2*
X-1517000D1*
X-1498000D2*
X-1440000D1*
X-1423000D2*
X-1405000D1*
X-1358000D2*
X-1311000D1*
X-1276000D2*
X-1223000D1*
X-1206000D2*
X-1159000D1*
X-1135000D2*
X-1118000D1*
X-1100000D2*
X-1088000D1*
X-1059000D2*
X-1042000D1*
X-1018000D2*
X-965000D1*
X-1633000Y533000D2*
X-1592000D1*
X-1581000D2*
X-1563000D1*
X-1534000D2*
X-1517000D1*
X-1504000D2*
X-1434000D1*
X-1423000D2*
X-1405000D1*
X-1358000D2*
X-1300000D1*
X-1276000D2*
X-1223000D1*
X-1206000D2*
X-1153000D1*
X-1135000D2*
X-1118000D1*
X-1100000D2*
X-1083000D1*
X-1059000D2*
X-1042000D1*
X-1024000D2*
X-960000D1*
X-1633000Y532000D2*
X-1592000D1*
X-1581000D2*
X-1563000D1*
X-1534000D2*
X-1517000D1*
X-1504000D2*
X-1434000D1*
X-1423000D2*
X-1405000D1*
X-1358000D2*
X-1300000D1*
X-1276000D2*
X-1223000D1*
X-1206000D2*
X-1153000D1*
X-1135000D2*
X-1118000D1*
X-1100000D2*
X-1083000D1*
X-1059000D2*
X-1042000D1*
X-1024000D2*
X-960000D1*
X-1633000Y531000D2*
X-1592000D1*
X-1581000D2*
X-1563000D1*
X-1534000D2*
X-1517000D1*
X-1504000D2*
X-1434000D1*
X-1423000D2*
X-1405000D1*
X-1358000D2*
X-1300000D1*
X-1276000D2*
X-1223000D1*
X-1206000D2*
X-1153000D1*
X-1135000D2*
X-1118000D1*
X-1100000D2*
X-1083000D1*
X-1059000D2*
X-1042000D1*
X-1024000D2*
X-960000D1*
X-1633000Y530000D2*
X-1592000D1*
X-1581000D2*
X-1563000D1*
X-1534000D2*
X-1517000D1*
X-1504000D2*
X-1434000D1*
X-1423000D2*
X-1405000D1*
X-1358000D2*
X-1300000D1*
X-1276000D2*
X-1223000D1*
X-1206000D2*
X-1153000D1*
X-1135000D2*
X-1118000D1*
X-1100000D2*
X-1083000D1*
X-1059000D2*
X-1042000D1*
X-1024000D2*
X-960000D1*
X-1633000Y529000D2*
X-1592000D1*
X-1581000D2*
X-1563000D1*
X-1534000D2*
X-1517000D1*
X-1504000D2*
X-1434000D1*
X-1423000D2*
X-1405000D1*
X-1358000D2*
X-1300000D1*
X-1276000D2*
X-1223000D1*
X-1206000D2*
X-1153000D1*
X-1135000D2*
X-1118000D1*
X-1100000D2*
X-1083000D1*
X-1059000D2*
X-1042000D1*
X-1024000D2*
X-960000D1*
X-1633000Y528000D2*
X-1592000D1*
X-1581000D2*
X-1563000D1*
X-1534000D2*
X-1517000D1*
X-1504000D2*
X-1434000D1*
X-1423000D2*
X-1405000D1*
X-1358000D2*
X-1300000D1*
X-1276000D2*
X-1223000D1*
X-1206000D2*
X-1153000D1*
X-1135000D2*
X-1118000D1*
X-1100000D2*
X-1083000D1*
X-1059000D2*
X-1042000D1*
X-1024000D2*
X-960000D1*
X-1633000Y527000D2*
X-1598000D1*
X-1581000D2*
X-1563000D1*
X-1504000D2*
X-1434000D1*
X-1423000D2*
X-1405000D1*
X-1358000D2*
X-1300000D1*
X-1276000D2*
X-1223000D1*
X-1206000D2*
X-1153000D1*
X-1135000D2*
X-1118000D1*
X-1100000D2*
X-1083000D1*
X-1059000D2*
X-1042000D1*
X-1024000D2*
X-960000D1*
X-1633000Y526000D2*
X-1598000D1*
X-1581000D2*
X-1563000D1*
X-1504000D2*
X-1434000D1*
X-1423000D2*
X-1405000D1*
X-1358000D2*
X-1300000D1*
X-1276000D2*
X-1223000D1*
X-1206000D2*
X-1153000D1*
X-1135000D2*
X-1118000D1*
X-1100000D2*
X-1083000D1*
X-1059000D2*
X-1042000D1*
X-1024000D2*
X-960000D1*
X-1633000Y525000D2*
X-1598000D1*
X-1581000D2*
X-1563000D1*
X-1504000D2*
X-1434000D1*
X-1423000D2*
X-1405000D1*
X-1358000D2*
X-1300000D1*
X-1276000D2*
X-1223000D1*
X-1206000D2*
X-1153000D1*
X-1135000D2*
X-1118000D1*
X-1100000D2*
X-1083000D1*
X-1059000D2*
X-1042000D1*
X-1024000D2*
X-960000D1*
X-1633000Y524000D2*
X-1598000D1*
X-1581000D2*
X-1563000D1*
X-1504000D2*
X-1434000D1*
X-1423000D2*
X-1405000D1*
X-1358000D2*
X-1300000D1*
X-1276000D2*
X-1223000D1*
X-1206000D2*
X-1153000D1*
X-1135000D2*
X-1118000D1*
X-1100000D2*
X-1083000D1*
X-1059000D2*
X-1042000D1*
X-1024000D2*
X-960000D1*
X-1633000Y523000D2*
X-1598000D1*
X-1581000D2*
X-1563000D1*
X-1504000D2*
X-1434000D1*
X-1423000D2*
X-1405000D1*
X-1358000D2*
X-1300000D1*
X-1276000D2*
X-1223000D1*
X-1206000D2*
X-1153000D1*
X-1135000D2*
X-1118000D1*
X-1100000D2*
X-1083000D1*
X-1059000D2*
X-1042000D1*
X-1024000D2*
X-960000D1*
X-1633000Y522000D2*
X-1598000D1*
X-1581000D2*
X-1563000D1*
X-1504000D2*
X-1434000D1*
X-1423000D2*
X-1405000D1*
X-1358000D2*
X-1294000D1*
X-1276000D2*
X-1223000D1*
X-1206000D2*
X-1153000D1*
X-1135000D2*
X-1118000D1*
X-1100000D2*
X-1077000D1*
X-1059000D2*
X-1042000D1*
X-1024000D2*
X-960000D1*
X-1633000Y521000D2*
X-1598000D1*
X-1581000D2*
X-1563000D1*
X-1504000D2*
X-1487000D1*
X-1452000D2*
X-1434000D1*
X-1423000D2*
X-1405000D1*
X-1358000D2*
X-1340000D1*
X-1323000D2*
X-1294000D1*
X-1276000D2*
X-1259000D1*
X-1206000D2*
X-1188000D1*
X-1171000D2*
X-1153000D1*
X-1135000D2*
X-1118000D1*
X-1100000D2*
X-1077000D1*
X-1059000D2*
X-1042000D1*
X-1024000D2*
X-1007000D1*
X-977000D2*
X-960000D1*
X-1633000Y520000D2*
X-1598000D1*
X-1581000D2*
X-1563000D1*
X-1504000D2*
X-1487000D1*
X-1452000D2*
X-1434000D1*
X-1423000D2*
X-1405000D1*
X-1358000D2*
X-1340000D1*
X-1323000D2*
X-1294000D1*
X-1276000D2*
X-1259000D1*
X-1206000D2*
X-1188000D1*
X-1171000D2*
X-1153000D1*
X-1135000D2*
X-1118000D1*
X-1100000D2*
X-1077000D1*
X-1059000D2*
X-1042000D1*
X-1024000D2*
X-1007000D1*
X-977000D2*
X-960000D1*
X-1633000Y519000D2*
X-1598000D1*
X-1581000D2*
X-1563000D1*
X-1504000D2*
X-1487000D1*
X-1452000D2*
X-1434000D1*
X-1423000D2*
X-1405000D1*
X-1358000D2*
X-1340000D1*
X-1323000D2*
X-1294000D1*
X-1276000D2*
X-1259000D1*
X-1206000D2*
X-1188000D1*
X-1171000D2*
X-1153000D1*
X-1135000D2*
X-1118000D1*
X-1100000D2*
X-1077000D1*
X-1059000D2*
X-1042000D1*
X-1024000D2*
X-1007000D1*
X-977000D2*
X-960000D1*
X-1633000Y518000D2*
X-1598000D1*
X-1581000D2*
X-1563000D1*
X-1504000D2*
X-1487000D1*
X-1452000D2*
X-1434000D1*
X-1423000D2*
X-1405000D1*
X-1358000D2*
X-1340000D1*
X-1323000D2*
X-1294000D1*
X-1276000D2*
X-1259000D1*
X-1206000D2*
X-1188000D1*
X-1171000D2*
X-1153000D1*
X-1135000D2*
X-1118000D1*
X-1100000D2*
X-1077000D1*
X-1059000D2*
X-1042000D1*
X-1024000D2*
X-1007000D1*
X-977000D2*
X-960000D1*
X-1633000Y517000D2*
X-1598000D1*
X-1581000D2*
X-1563000D1*
X-1504000D2*
X-1487000D1*
X-1452000D2*
X-1434000D1*
X-1423000D2*
X-1405000D1*
X-1358000D2*
X-1340000D1*
X-1323000D2*
X-1294000D1*
X-1276000D2*
X-1259000D1*
X-1206000D2*
X-1188000D1*
X-1171000D2*
X-1153000D1*
X-1135000D2*
X-1118000D1*
X-1100000D2*
X-1077000D1*
X-1059000D2*
X-1042000D1*
X-1024000D2*
X-1007000D1*
X-977000D2*
X-960000D1*
X-1639000Y516000D2*
X-1598000D1*
X-1581000D2*
X-1523000D1*
X-1504000D2*
X-1487000D1*
X-1452000D2*
X-1434000D1*
X-1423000D2*
X-1405000D1*
X-1358000D2*
X-1340000D1*
X-1323000D2*
X-1294000D1*
X-1276000D2*
X-1259000D1*
X-1206000D2*
X-1188000D1*
X-1171000D2*
X-1153000D1*
X-1135000D2*
X-1118000D1*
X-1100000D2*
X-1071000D1*
X-1059000D2*
X-1042000D1*
X-1024000D2*
X-1007000D1*
X-977000D2*
X-960000D1*
X-1639000Y515000D2*
X-1598000D1*
X-1581000D2*
X-1523000D1*
X-1504000D2*
X-1487000D1*
X-1452000D2*
X-1434000D1*
X-1423000D2*
X-1405000D1*
X-1358000D2*
X-1340000D1*
X-1317000D2*
X-1294000D1*
X-1276000D2*
X-1259000D1*
X-1206000D2*
X-1188000D1*
X-1171000D2*
X-1153000D1*
X-1135000D2*
X-1118000D1*
X-1100000D2*
X-1071000D1*
X-1059000D2*
X-1042000D1*
X-1024000D2*
X-1007000D1*
X-977000D2*
X-960000D1*
X-1639000Y514000D2*
X-1598000D1*
X-1581000D2*
X-1523000D1*
X-1504000D2*
X-1487000D1*
X-1452000D2*
X-1434000D1*
X-1423000D2*
X-1405000D1*
X-1358000D2*
X-1340000D1*
X-1317000D2*
X-1294000D1*
X-1276000D2*
X-1259000D1*
X-1206000D2*
X-1188000D1*
X-1171000D2*
X-1153000D1*
X-1135000D2*
X-1118000D1*
X-1100000D2*
X-1071000D1*
X-1059000D2*
X-1042000D1*
X-1024000D2*
X-1007000D1*
X-977000D2*
X-960000D1*
X-1639000Y513000D2*
X-1598000D1*
X-1581000D2*
X-1523000D1*
X-1504000D2*
X-1487000D1*
X-1452000D2*
X-1434000D1*
X-1423000D2*
X-1405000D1*
X-1358000D2*
X-1340000D1*
X-1317000D2*
X-1294000D1*
X-1276000D2*
X-1259000D1*
X-1206000D2*
X-1188000D1*
X-1171000D2*
X-1153000D1*
X-1135000D2*
X-1118000D1*
X-1100000D2*
X-1071000D1*
X-1059000D2*
X-1042000D1*
X-1024000D2*
X-1007000D1*
X-977000D2*
X-960000D1*
X-1639000Y512000D2*
X-1598000D1*
X-1581000D2*
X-1523000D1*
X-1504000D2*
X-1487000D1*
X-1452000D2*
X-1434000D1*
X-1423000D2*
X-1405000D1*
X-1358000D2*
X-1340000D1*
X-1317000D2*
X-1294000D1*
X-1276000D2*
X-1259000D1*
X-1206000D2*
X-1188000D1*
X-1171000D2*
X-1153000D1*
X-1135000D2*
X-1118000D1*
X-1100000D2*
X-1071000D1*
X-1059000D2*
X-1042000D1*
X-1024000D2*
X-1007000D1*
X-977000D2*
X-960000D1*
X-1639000Y511000D2*
X-1598000D1*
X-1581000D2*
X-1523000D1*
X-1504000D2*
X-1487000D1*
X-1452000D2*
X-1434000D1*
X-1423000D2*
X-1405000D1*
X-1358000D2*
X-1340000D1*
X-1317000D2*
X-1294000D1*
X-1276000D2*
X-1259000D1*
X-1206000D2*
X-1188000D1*
X-1171000D2*
X-1153000D1*
X-1135000D2*
X-1118000D1*
X-1100000D2*
X-1071000D1*
X-1059000D2*
X-1042000D1*
X-1024000D2*
X-1007000D1*
X-977000D2*
X-960000D1*
X-1639000Y510000D2*
X-1598000D1*
X-1581000D2*
X-1517000D1*
X-1504000D2*
X-1487000D1*
X-1452000D2*
X-1434000D1*
X-1423000D2*
X-1405000D1*
X-1358000D2*
X-1340000D1*
X-1317000D2*
X-1294000D1*
X-1276000D2*
X-1241000D1*
X-1206000D2*
X-1188000D1*
X-1171000D2*
X-1153000D1*
X-1135000D2*
X-1118000D1*
X-1100000D2*
X-1071000D1*
X-1059000D2*
X-1042000D1*
X-1024000D2*
X-1007000D1*
X-977000D2*
X-960000D1*
X-1639000Y509000D2*
X-1604000D1*
X-1581000D2*
X-1517000D1*
X-1504000D2*
X-1487000D1*
X-1452000D2*
X-1434000D1*
X-1423000D2*
X-1405000D1*
X-1358000D2*
X-1340000D1*
X-1311000D2*
X-1294000D1*
X-1276000D2*
X-1241000D1*
X-1206000D2*
X-1188000D1*
X-1171000D2*
X-1153000D1*
X-1135000D2*
X-1118000D1*
X-1100000D2*
X-1071000D1*
X-1059000D2*
X-1042000D1*
X-1024000D2*
X-1007000D1*
X-1639000Y508000D2*
X-1604000D1*
X-1581000D2*
X-1517000D1*
X-1504000D2*
X-1487000D1*
X-1452000D2*
X-1434000D1*
X-1423000D2*
X-1405000D1*
X-1358000D2*
X-1340000D1*
X-1311000D2*
X-1294000D1*
X-1276000D2*
X-1241000D1*
X-1206000D2*
X-1188000D1*
X-1171000D2*
X-1153000D1*
X-1135000D2*
X-1118000D1*
X-1100000D2*
X-1071000D1*
X-1059000D2*
X-1042000D1*
X-1024000D2*
X-1007000D1*
X-1639000Y507000D2*
X-1604000D1*
X-1581000D2*
X-1517000D1*
X-1504000D2*
X-1487000D1*
X-1452000D2*
X-1434000D1*
X-1423000D2*
X-1405000D1*
X-1358000D2*
X-1340000D1*
X-1311000D2*
X-1294000D1*
X-1276000D2*
X-1241000D1*
X-1206000D2*
X-1188000D1*
X-1171000D2*
X-1153000D1*
X-1135000D2*
X-1118000D1*
X-1100000D2*
X-1071000D1*
X-1059000D2*
X-1042000D1*
X-1024000D2*
X-1007000D1*
X-1639000Y506000D2*
X-1604000D1*
X-1581000D2*
X-1517000D1*
X-1504000D2*
X-1487000D1*
X-1452000D2*
X-1434000D1*
X-1423000D2*
X-1405000D1*
X-1358000D2*
X-1340000D1*
X-1311000D2*
X-1294000D1*
X-1276000D2*
X-1241000D1*
X-1206000D2*
X-1188000D1*
X-1171000D2*
X-1153000D1*
X-1135000D2*
X-1118000D1*
X-1100000D2*
X-1071000D1*
X-1059000D2*
X-1042000D1*
X-1024000D2*
X-1007000D1*
X-1645000Y505000D2*
X-1604000D1*
X-1581000D2*
X-1517000D1*
X-1504000D2*
X-1487000D1*
X-1452000D2*
X-1434000D1*
X-1423000D2*
X-1405000D1*
X-1358000D2*
X-1340000D1*
X-1311000D2*
X-1294000D1*
X-1276000D2*
X-1241000D1*
X-1206000D2*
X-1153000D1*
X-1135000D2*
X-1118000D1*
X-1100000D2*
X-1065000D1*
X-1059000D2*
X-1042000D1*
X-1024000D2*
X-1007000D1*
X-994000D2*
X-960000D1*
X-1645000Y504000D2*
X-1604000D1*
X-1575000D2*
X-1517000D1*
X-1504000D2*
X-1487000D1*
X-1452000D2*
X-1434000D1*
X-1423000D2*
X-1405000D1*
X-1358000D2*
X-1340000D1*
X-1311000D2*
X-1294000D1*
X-1276000D2*
X-1241000D1*
X-1206000D2*
X-1153000D1*
X-1135000D2*
X-1118000D1*
X-1100000D2*
X-1065000D1*
X-1059000D2*
X-1042000D1*
X-1024000D2*
X-1007000D1*
X-994000D2*
X-960000D1*
X-1645000Y503000D2*
X-1604000D1*
X-1575000D2*
X-1517000D1*
X-1504000D2*
X-1487000D1*
X-1452000D2*
X-1434000D1*
X-1423000D2*
X-1405000D1*
X-1358000D2*
X-1340000D1*
X-1311000D2*
X-1294000D1*
X-1276000D2*
X-1241000D1*
X-1206000D2*
X-1153000D1*
X-1135000D2*
X-1118000D1*
X-1100000D2*
X-1065000D1*
X-1059000D2*
X-1042000D1*
X-1024000D2*
X-1007000D1*
X-994000D2*
X-960000D1*
X-1645000Y502000D2*
X-1604000D1*
X-1575000D2*
X-1517000D1*
X-1504000D2*
X-1487000D1*
X-1452000D2*
X-1434000D1*
X-1423000D2*
X-1405000D1*
X-1358000D2*
X-1340000D1*
X-1311000D2*
X-1294000D1*
X-1276000D2*
X-1241000D1*
X-1206000D2*
X-1153000D1*
X-1135000D2*
X-1118000D1*
X-1100000D2*
X-1065000D1*
X-1059000D2*
X-1042000D1*
X-1024000D2*
X-1007000D1*
X-994000D2*
X-960000D1*
X-1645000Y501000D2*
X-1604000D1*
X-1575000D2*
X-1517000D1*
X-1504000D2*
X-1487000D1*
X-1452000D2*
X-1434000D1*
X-1423000D2*
X-1405000D1*
X-1358000D2*
X-1340000D1*
X-1311000D2*
X-1294000D1*
X-1276000D2*
X-1241000D1*
X-1206000D2*
X-1153000D1*
X-1135000D2*
X-1118000D1*
X-1100000D2*
X-1065000D1*
X-1059000D2*
X-1042000D1*
X-1024000D2*
X-1007000D1*
X-994000D2*
X-960000D1*
X-1645000Y500000D2*
X-1604000D1*
X-1575000D2*
X-1517000D1*
X-1504000D2*
X-1487000D1*
X-1452000D2*
X-1434000D1*
X-1423000D2*
X-1405000D1*
X-1358000D2*
X-1340000D1*
X-1311000D2*
X-1294000D1*
X-1276000D2*
X-1241000D1*
X-1206000D2*
X-1153000D1*
X-1135000D2*
X-1118000D1*
X-1100000D2*
X-1065000D1*
X-1059000D2*
X-1042000D1*
X-1024000D2*
X-1007000D1*
X-994000D2*
X-960000D1*
X-1645000Y499000D2*
X-1604000D1*
X-1575000D2*
X-1517000D1*
X-1504000D2*
X-1487000D1*
X-1452000D2*
X-1434000D1*
X-1423000D2*
X-1405000D1*
X-1358000D2*
X-1340000D1*
X-1311000D2*
X-1294000D1*
X-1276000D2*
X-1241000D1*
X-1206000D2*
X-1153000D1*
X-1135000D2*
X-1118000D1*
X-1100000D2*
X-1042000D1*
X-1024000D2*
X-1007000D1*
X-994000D2*
X-960000D1*
X-1645000Y498000D2*
X-1604000D1*
X-1534000D2*
X-1517000D1*
X-1504000D2*
X-1487000D1*
X-1452000D2*
X-1434000D1*
X-1423000D2*
X-1405000D1*
X-1358000D2*
X-1340000D1*
X-1311000D2*
X-1294000D1*
X-1276000D2*
X-1241000D1*
X-1206000D2*
X-1153000D1*
X-1135000D2*
X-1118000D1*
X-1100000D2*
X-1083000D1*
X-1077000D2*
X-1042000D1*
X-1024000D2*
X-1007000D1*
X-994000D2*
X-960000D1*
X-1645000Y497000D2*
X-1604000D1*
X-1534000D2*
X-1517000D1*
X-1504000D2*
X-1487000D1*
X-1452000D2*
X-1434000D1*
X-1423000D2*
X-1405000D1*
X-1358000D2*
X-1340000D1*
X-1311000D2*
X-1294000D1*
X-1276000D2*
X-1241000D1*
X-1206000D2*
X-1153000D1*
X-1135000D2*
X-1118000D1*
X-1100000D2*
X-1083000D1*
X-1077000D2*
X-1042000D1*
X-1024000D2*
X-1007000D1*
X-994000D2*
X-960000D1*
X-1645000Y496000D2*
X-1604000D1*
X-1534000D2*
X-1517000D1*
X-1504000D2*
X-1487000D1*
X-1452000D2*
X-1434000D1*
X-1423000D2*
X-1405000D1*
X-1358000D2*
X-1340000D1*
X-1311000D2*
X-1294000D1*
X-1276000D2*
X-1241000D1*
X-1206000D2*
X-1153000D1*
X-1135000D2*
X-1118000D1*
X-1100000D2*
X-1083000D1*
X-1077000D2*
X-1042000D1*
X-1024000D2*
X-1007000D1*
X-994000D2*
X-960000D1*
X-1645000Y495000D2*
X-1604000D1*
X-1534000D2*
X-1517000D1*
X-1504000D2*
X-1487000D1*
X-1452000D2*
X-1434000D1*
X-1423000D2*
X-1405000D1*
X-1358000D2*
X-1340000D1*
X-1311000D2*
X-1294000D1*
X-1276000D2*
X-1241000D1*
X-1206000D2*
X-1153000D1*
X-1135000D2*
X-1118000D1*
X-1100000D2*
X-1083000D1*
X-1077000D2*
X-1042000D1*
X-1024000D2*
X-1007000D1*
X-994000D2*
X-960000D1*
X-1645000Y494000D2*
X-1604000D1*
X-1534000D2*
X-1517000D1*
X-1504000D2*
X-1487000D1*
X-1452000D2*
X-1434000D1*
X-1423000D2*
X-1405000D1*
X-1358000D2*
X-1340000D1*
X-1311000D2*
X-1294000D1*
X-1276000D2*
X-1241000D1*
X-1206000D2*
X-1153000D1*
X-1135000D2*
X-1118000D1*
X-1100000D2*
X-1083000D1*
X-1077000D2*
X-1042000D1*
X-1024000D2*
X-1007000D1*
X-994000D2*
X-960000D1*
X-1645000Y493000D2*
X-1604000D1*
X-1581000D2*
X-1569000D1*
X-1534000D2*
X-1517000D1*
X-1504000D2*
X-1487000D1*
X-1452000D2*
X-1434000D1*
X-1423000D2*
X-1405000D1*
X-1358000D2*
X-1340000D1*
X-1311000D2*
X-1294000D1*
X-1276000D2*
X-1241000D1*
X-1206000D2*
X-1153000D1*
X-1135000D2*
X-1118000D1*
X-1100000D2*
X-1083000D1*
X-1077000D2*
X-1042000D1*
X-1024000D2*
X-1007000D1*
X-994000D2*
X-960000D1*
X-1645000Y492000D2*
X-1604000D1*
X-1581000D2*
X-1569000D1*
X-1534000D2*
X-1517000D1*
X-1504000D2*
X-1487000D1*
X-1452000D2*
X-1434000D1*
X-1423000D2*
X-1405000D1*
X-1358000D2*
X-1340000D1*
X-1311000D2*
X-1294000D1*
X-1276000D2*
X-1259000D1*
X-1206000D2*
X-1159000D1*
X-1135000D2*
X-1118000D1*
X-1100000D2*
X-1083000D1*
X-1071000D2*
X-1042000D1*
X-1024000D2*
X-1007000D1*
X-994000D2*
X-960000D1*
X-1645000Y491000D2*
X-1604000D1*
X-1581000D2*
X-1569000D1*
X-1534000D2*
X-1517000D1*
X-1504000D2*
X-1487000D1*
X-1452000D2*
X-1434000D1*
X-1423000D2*
X-1405000D1*
X-1358000D2*
X-1340000D1*
X-1311000D2*
X-1294000D1*
X-1276000D2*
X-1259000D1*
X-1206000D2*
X-1159000D1*
X-1135000D2*
X-1118000D1*
X-1100000D2*
X-1083000D1*
X-1071000D2*
X-1042000D1*
X-1024000D2*
X-1007000D1*
X-994000D2*
X-960000D1*
X-1645000Y490000D2*
X-1604000D1*
X-1581000D2*
X-1569000D1*
X-1534000D2*
X-1517000D1*
X-1504000D2*
X-1487000D1*
X-1452000D2*
X-1434000D1*
X-1423000D2*
X-1405000D1*
X-1358000D2*
X-1340000D1*
X-1311000D2*
X-1294000D1*
X-1276000D2*
X-1259000D1*
X-1206000D2*
X-1159000D1*
X-1135000D2*
X-1118000D1*
X-1100000D2*
X-1083000D1*
X-1071000D2*
X-1042000D1*
X-1024000D2*
X-1007000D1*
X-994000D2*
X-960000D1*
X-1645000Y489000D2*
X-1604000D1*
X-1581000D2*
X-1569000D1*
X-1534000D2*
X-1517000D1*
X-1504000D2*
X-1487000D1*
X-1452000D2*
X-1434000D1*
X-1423000D2*
X-1405000D1*
X-1358000D2*
X-1340000D1*
X-1311000D2*
X-1294000D1*
X-1276000D2*
X-1259000D1*
X-1206000D2*
X-1159000D1*
X-1135000D2*
X-1118000D1*
X-1100000D2*
X-1083000D1*
X-1071000D2*
X-1042000D1*
X-1024000D2*
X-1007000D1*
X-994000D2*
X-960000D1*
X-1645000Y488000D2*
X-1604000D1*
X-1581000D2*
X-1569000D1*
X-1534000D2*
X-1517000D1*
X-1504000D2*
X-1487000D1*
X-1452000D2*
X-1434000D1*
X-1423000D2*
X-1405000D1*
X-1358000D2*
X-1340000D1*
X-1311000D2*
X-1294000D1*
X-1276000D2*
X-1259000D1*
X-1206000D2*
X-1159000D1*
X-1135000D2*
X-1118000D1*
X-1100000D2*
X-1083000D1*
X-1071000D2*
X-1042000D1*
X-1024000D2*
X-1007000D1*
X-994000D2*
X-960000D1*
X-1651000Y487000D2*
X-1604000D1*
X-1587000D2*
X-1569000D1*
X-1534000D2*
X-1517000D1*
X-1504000D2*
X-1487000D1*
X-1452000D2*
X-1434000D1*
X-1423000D2*
X-1405000D1*
X-1358000D2*
X-1340000D1*
X-1311000D2*
X-1294000D1*
X-1276000D2*
X-1259000D1*
X-1206000D2*
X-1159000D1*
X-1135000D2*
X-1118000D1*
X-1100000D2*
X-1083000D1*
X-1071000D2*
X-1042000D1*
X-1024000D2*
X-1007000D1*
X-994000D2*
X-960000D1*
X-1651000Y486000D2*
X-1610000D1*
X-1587000D2*
X-1569000D1*
X-1534000D2*
X-1517000D1*
X-1504000D2*
X-1487000D1*
X-1452000D2*
X-1434000D1*
X-1423000D2*
X-1405000D1*
X-1358000D2*
X-1340000D1*
X-1311000D2*
X-1294000D1*
X-1276000D2*
X-1259000D1*
X-1206000D2*
X-1188000D1*
X-1182000D2*
X-1165000D1*
X-1135000D2*
X-1118000D1*
X-1100000D2*
X-1083000D1*
X-1071000D2*
X-1042000D1*
X-1024000D2*
X-1007000D1*
X-977000D2*
X-960000D1*
X-1651000Y485000D2*
X-1610000D1*
X-1587000D2*
X-1569000D1*
X-1534000D2*
X-1517000D1*
X-1504000D2*
X-1487000D1*
X-1452000D2*
X-1434000D1*
X-1423000D2*
X-1405000D1*
X-1358000D2*
X-1340000D1*
X-1311000D2*
X-1294000D1*
X-1276000D2*
X-1259000D1*
X-1206000D2*
X-1188000D1*
X-1182000D2*
X-1165000D1*
X-1135000D2*
X-1118000D1*
X-1100000D2*
X-1083000D1*
X-1071000D2*
X-1042000D1*
X-1024000D2*
X-1007000D1*
X-977000D2*
X-960000D1*
X-1651000Y484000D2*
X-1610000D1*
X-1587000D2*
X-1569000D1*
X-1534000D2*
X-1517000D1*
X-1504000D2*
X-1487000D1*
X-1452000D2*
X-1434000D1*
X-1423000D2*
X-1405000D1*
X-1358000D2*
X-1340000D1*
X-1311000D2*
X-1294000D1*
X-1276000D2*
X-1259000D1*
X-1206000D2*
X-1188000D1*
X-1182000D2*
X-1165000D1*
X-1135000D2*
X-1118000D1*
X-1100000D2*
X-1083000D1*
X-1071000D2*
X-1042000D1*
X-1024000D2*
X-1007000D1*
X-977000D2*
X-960000D1*
X-1651000Y483000D2*
X-1610000D1*
X-1587000D2*
X-1569000D1*
X-1534000D2*
X-1517000D1*
X-1504000D2*
X-1487000D1*
X-1452000D2*
X-1434000D1*
X-1423000D2*
X-1405000D1*
X-1358000D2*
X-1340000D1*
X-1311000D2*
X-1294000D1*
X-1276000D2*
X-1259000D1*
X-1206000D2*
X-1188000D1*
X-1182000D2*
X-1165000D1*
X-1135000D2*
X-1118000D1*
X-1100000D2*
X-1083000D1*
X-1071000D2*
X-1042000D1*
X-1024000D2*
X-1007000D1*
X-977000D2*
X-960000D1*
X-1651000Y482000D2*
X-1610000D1*
X-1587000D2*
X-1569000D1*
X-1534000D2*
X-1517000D1*
X-1504000D2*
X-1487000D1*
X-1452000D2*
X-1434000D1*
X-1423000D2*
X-1405000D1*
X-1358000D2*
X-1340000D1*
X-1311000D2*
X-1294000D1*
X-1276000D2*
X-1259000D1*
X-1206000D2*
X-1188000D1*
X-1182000D2*
X-1165000D1*
X-1135000D2*
X-1118000D1*
X-1100000D2*
X-1083000D1*
X-1071000D2*
X-1042000D1*
X-1024000D2*
X-1007000D1*
X-977000D2*
X-960000D1*
X-1651000Y481000D2*
X-1610000D1*
X-1587000D2*
X-1569000D1*
X-1534000D2*
X-1517000D1*
X-1504000D2*
X-1487000D1*
X-1452000D2*
X-1434000D1*
X-1423000D2*
X-1405000D1*
X-1358000D2*
X-1340000D1*
X-1317000D2*
X-1294000D1*
X-1276000D2*
X-1259000D1*
X-1206000D2*
X-1188000D1*
X-1182000D2*
X-1159000D1*
X-1135000D2*
X-1118000D1*
X-1100000D2*
X-1083000D1*
X-1071000D2*
X-1042000D1*
X-1024000D2*
X-1007000D1*
X-977000D2*
X-960000D1*
X-1651000Y480000D2*
X-1610000D1*
X-1587000D2*
X-1569000D1*
X-1534000D2*
X-1517000D1*
X-1504000D2*
X-1487000D1*
X-1452000D2*
X-1434000D1*
X-1423000D2*
X-1405000D1*
X-1358000D2*
X-1340000D1*
X-1317000D2*
X-1294000D1*
X-1276000D2*
X-1259000D1*
X-1206000D2*
X-1188000D1*
X-1177000D2*
X-1159000D1*
X-1135000D2*
X-1118000D1*
X-1100000D2*
X-1083000D1*
X-1065000D2*
X-1042000D1*
X-1024000D2*
X-1007000D1*
X-977000D2*
X-960000D1*
X-1651000Y479000D2*
X-1610000D1*
X-1587000D2*
X-1569000D1*
X-1534000D2*
X-1517000D1*
X-1504000D2*
X-1487000D1*
X-1452000D2*
X-1434000D1*
X-1423000D2*
X-1405000D1*
X-1358000D2*
X-1340000D1*
X-1317000D2*
X-1294000D1*
X-1276000D2*
X-1259000D1*
X-1206000D2*
X-1188000D1*
X-1177000D2*
X-1159000D1*
X-1135000D2*
X-1118000D1*
X-1100000D2*
X-1083000D1*
X-1065000D2*
X-1042000D1*
X-1024000D2*
X-1007000D1*
X-977000D2*
X-960000D1*
X-1651000Y478000D2*
X-1610000D1*
X-1587000D2*
X-1569000D1*
X-1534000D2*
X-1517000D1*
X-1504000D2*
X-1487000D1*
X-1452000D2*
X-1434000D1*
X-1423000D2*
X-1405000D1*
X-1358000D2*
X-1340000D1*
X-1317000D2*
X-1294000D1*
X-1276000D2*
X-1259000D1*
X-1206000D2*
X-1188000D1*
X-1177000D2*
X-1159000D1*
X-1135000D2*
X-1118000D1*
X-1100000D2*
X-1083000D1*
X-1065000D2*
X-1042000D1*
X-1024000D2*
X-1007000D1*
X-977000D2*
X-960000D1*
X-1651000Y477000D2*
X-1610000D1*
X-1587000D2*
X-1569000D1*
X-1534000D2*
X-1517000D1*
X-1504000D2*
X-1487000D1*
X-1452000D2*
X-1434000D1*
X-1423000D2*
X-1405000D1*
X-1358000D2*
X-1340000D1*
X-1317000D2*
X-1294000D1*
X-1276000D2*
X-1259000D1*
X-1206000D2*
X-1188000D1*
X-1177000D2*
X-1159000D1*
X-1135000D2*
X-1118000D1*
X-1100000D2*
X-1083000D1*
X-1065000D2*
X-1042000D1*
X-1024000D2*
X-1007000D1*
X-977000D2*
X-960000D1*
X-1651000Y476000D2*
X-1610000D1*
X-1587000D2*
X-1517000D1*
X-1504000D2*
X-1434000D1*
X-1423000D2*
X-1370000D1*
X-1358000D2*
X-1294000D1*
X-1276000D2*
X-1223000D1*
X-1206000D2*
X-1188000D1*
X-1177000D2*
X-1153000D1*
X-1135000D2*
X-1118000D1*
X-1100000D2*
X-1083000D1*
X-1065000D2*
X-1042000D1*
X-1024000D2*
X-960000D1*
X-1651000Y475000D2*
X-1610000D1*
X-1587000D2*
X-1517000D1*
X-1504000D2*
X-1434000D1*
X-1423000D2*
X-1370000D1*
X-1358000D2*
X-1300000D1*
X-1276000D2*
X-1223000D1*
X-1206000D2*
X-1188000D1*
X-1177000D2*
X-1153000D1*
X-1135000D2*
X-1118000D1*
X-1100000D2*
X-1083000D1*
X-1059000D2*
X-1042000D1*
X-1024000D2*
X-960000D1*
X-1651000Y474000D2*
X-1610000D1*
X-1587000D2*
X-1517000D1*
X-1504000D2*
X-1434000D1*
X-1423000D2*
X-1370000D1*
X-1358000D2*
X-1300000D1*
X-1276000D2*
X-1223000D1*
X-1206000D2*
X-1188000D1*
X-1177000D2*
X-1153000D1*
X-1135000D2*
X-1118000D1*
X-1100000D2*
X-1083000D1*
X-1059000D2*
X-1042000D1*
X-1024000D2*
X-960000D1*
X-1651000Y473000D2*
X-1610000D1*
X-1587000D2*
X-1517000D1*
X-1504000D2*
X-1434000D1*
X-1423000D2*
X-1370000D1*
X-1358000D2*
X-1300000D1*
X-1276000D2*
X-1223000D1*
X-1206000D2*
X-1188000D1*
X-1177000D2*
X-1153000D1*
X-1135000D2*
X-1118000D1*
X-1100000D2*
X-1083000D1*
X-1059000D2*
X-1042000D1*
X-1024000D2*
X-960000D1*
X-1651000Y472000D2*
X-1610000D1*
X-1587000D2*
X-1517000D1*
X-1504000D2*
X-1434000D1*
X-1423000D2*
X-1370000D1*
X-1358000D2*
X-1300000D1*
X-1276000D2*
X-1223000D1*
X-1206000D2*
X-1188000D1*
X-1177000D2*
X-1153000D1*
X-1135000D2*
X-1118000D1*
X-1100000D2*
X-1083000D1*
X-1059000D2*
X-1042000D1*
X-1024000D2*
X-960000D1*
X-1651000Y471000D2*
X-1610000D1*
X-1587000D2*
X-1517000D1*
X-1504000D2*
X-1434000D1*
X-1423000D2*
X-1370000D1*
X-1358000D2*
X-1300000D1*
X-1276000D2*
X-1223000D1*
X-1206000D2*
X-1188000D1*
X-1177000D2*
X-1153000D1*
X-1135000D2*
X-1118000D1*
X-1100000D2*
X-1083000D1*
X-1059000D2*
X-1042000D1*
X-1024000D2*
X-960000D1*
X-1657000Y470000D2*
X-1610000D1*
X-1587000D2*
X-1517000D1*
X-1504000D2*
X-1434000D1*
X-1423000D2*
X-1370000D1*
X-1358000D2*
X-1300000D1*
X-1276000D2*
X-1223000D1*
X-1206000D2*
X-1188000D1*
X-1177000D2*
X-1148000D1*
X-1135000D2*
X-1118000D1*
X-1100000D2*
X-1083000D1*
X-1059000D2*
X-1042000D1*
X-1024000D2*
X-960000D1*
X-1657000Y469000D2*
X-1616000D1*
X-1587000D2*
X-1517000D1*
X-1504000D2*
X-1434000D1*
X-1423000D2*
X-1370000D1*
X-1358000D2*
X-1300000D1*
X-1276000D2*
X-1223000D1*
X-1206000D2*
X-1188000D1*
X-1171000D2*
X-1148000D1*
X-1135000D2*
X-1118000D1*
X-1100000D2*
X-1083000D1*
X-1059000D2*
X-1042000D1*
X-1024000D2*
X-960000D1*
X-1657000Y468000D2*
X-1616000D1*
X-1587000D2*
X-1517000D1*
X-1504000D2*
X-1434000D1*
X-1423000D2*
X-1370000D1*
X-1358000D2*
X-1300000D1*
X-1276000D2*
X-1223000D1*
X-1206000D2*
X-1188000D1*
X-1171000D2*
X-1148000D1*
X-1135000D2*
X-1118000D1*
X-1100000D2*
X-1083000D1*
X-1059000D2*
X-1042000D1*
X-1024000D2*
X-960000D1*
X-1657000Y467000D2*
X-1616000D1*
X-1587000D2*
X-1517000D1*
X-1504000D2*
X-1434000D1*
X-1423000D2*
X-1370000D1*
X-1358000D2*
X-1300000D1*
X-1276000D2*
X-1223000D1*
X-1206000D2*
X-1188000D1*
X-1171000D2*
X-1148000D1*
X-1135000D2*
X-1118000D1*
X-1100000D2*
X-1083000D1*
X-1059000D2*
X-1042000D1*
X-1024000D2*
X-960000D1*
X-1657000Y466000D2*
X-1616000D1*
X-1587000D2*
X-1517000D1*
X-1504000D2*
X-1434000D1*
X-1423000D2*
X-1370000D1*
X-1358000D2*
X-1300000D1*
X-1276000D2*
X-1223000D1*
X-1206000D2*
X-1188000D1*
X-1171000D2*
X-1148000D1*
X-1135000D2*
X-1118000D1*
X-1100000D2*
X-1083000D1*
X-1059000D2*
X-1042000D1*
X-1024000D2*
X-960000D1*
X-1657000Y465000D2*
X-1616000D1*
X-1587000D2*
X-1517000D1*
X-1504000D2*
X-1434000D1*
X-1423000D2*
X-1370000D1*
X-1358000D2*
X-1300000D1*
X-1276000D2*
X-1223000D1*
X-1206000D2*
X-1188000D1*
X-1171000D2*
X-1148000D1*
X-1135000D2*
X-1118000D1*
X-1100000D2*
X-1083000D1*
X-1059000D2*
X-1042000D1*
X-1024000D2*
X-960000D1*
X-1657000Y464000D2*
X-1616000D1*
X-1587000D2*
X-1517000D1*
X-1504000D2*
X-1434000D1*
X-1423000D2*
X-1370000D1*
X-1358000D2*
X-1300000D1*
X-1276000D2*
X-1223000D1*
X-1206000D2*
X-1188000D1*
X-1171000D2*
X-1148000D1*
X-1135000D2*
X-1118000D1*
X-1100000D2*
X-1083000D1*
X-1059000D2*
X-1042000D1*
X-1024000D2*
X-960000D1*
X-1657000Y463000D2*
X-1616000D1*
X-1581000D2*
X-1523000D1*
X-1498000D2*
X-1440000D1*
X-1423000D2*
X-1370000D1*
X-1358000D2*
X-1311000D1*
X-1276000D2*
X-1223000D1*
X-1206000D2*
X-1188000D1*
X-1165000D2*
X-1148000D1*
X-1135000D2*
X-1118000D1*
X-1100000D2*
X-1083000D1*
X-1054000D2*
X-1042000D1*
X-1018000D2*
X-965000D1*
X-1657000Y462000D2*
X-1616000D1*
X-1581000D2*
X-1523000D1*
X-1498000D2*
X-1440000D1*
X-1423000D2*
X-1370000D1*
X-1358000D2*
X-1311000D1*
X-1276000D2*
X-1223000D1*
X-1206000D2*
X-1188000D1*
X-1165000D2*
X-1148000D1*
X-1135000D2*
X-1118000D1*
X-1100000D2*
X-1083000D1*
X-1054000D2*
X-1042000D1*
X-1018000D2*
X-965000D1*
X-1657000Y461000D2*
X-1616000D1*
X-1581000D2*
X-1523000D1*
X-1498000D2*
X-1440000D1*
X-1423000D2*
X-1370000D1*
X-1358000D2*
X-1311000D1*
X-1276000D2*
X-1223000D1*
X-1206000D2*
X-1188000D1*
X-1165000D2*
X-1148000D1*
X-1135000D2*
X-1118000D1*
X-1100000D2*
X-1083000D1*
X-1054000D2*
X-1042000D1*
X-1018000D2*
X-965000D1*
X-1657000Y460000D2*
X-1616000D1*
X-1581000D2*
X-1523000D1*
X-1498000D2*
X-1440000D1*
X-1423000D2*
X-1370000D1*
X-1358000D2*
X-1311000D1*
X-1276000D2*
X-1223000D1*
X-1206000D2*
X-1188000D1*
X-1165000D2*
X-1148000D1*
X-1135000D2*
X-1118000D1*
X-1100000D2*
X-1083000D1*
X-1054000D2*
X-1042000D1*
X-1018000D2*
X-965000D1*
X-1657000Y459000D2*
X-1616000D1*
X-1581000D2*
X-1523000D1*
X-1498000D2*
X-1440000D1*
X-1423000D2*
X-1370000D1*
X-1358000D2*
X-1311000D1*
X-1276000D2*
X-1223000D1*
X-1206000D2*
X-1188000D1*
X-1165000D2*
X-1148000D1*
X-1135000D2*
X-1118000D1*
X-1100000D2*
X-1083000D1*
X-1054000D2*
X-1042000D1*
X-1018000D2*
X-965000D1*
X-1663000Y458000D2*
X-1616000D1*
X-1581000D2*
X-1440000D1*
X-1423000D2*
X-1370000D1*
X-1358000D2*
X-1311000D1*
X-1276000D2*
X-1223000D1*
X-1206000D2*
X-1188000D1*
X-1165000D2*
X-1148000D1*
X-1135000D2*
X-1118000D1*
X-1100000D2*
X-1083000D1*
X-1054000D2*
X-1042000D1*
X-1018000D2*
X-965000D1*
X-1663000Y457000D2*
X-1616000D1*
X-1546000D2*
X-1481000D1*
X-1663000Y456000D2*
X-1616000D1*
X-1546000D2*
X-1481000D1*
X-1663000Y455000D2*
X-1616000D1*
X-1546000D2*
X-1481000D1*
X-1663000Y454000D2*
X-1616000D1*
X-1546000D2*
X-1481000D1*
X-1663000Y453000D2*
X-1616000D1*
X-1546000D2*
X-1481000D1*
X-1669000Y452000D2*
X-1616000D1*
X-1552000D2*
X-1481000D1*
X-1669000Y451000D2*
X-1616000D1*
X-1552000D2*
X-1481000D1*
X-1669000Y450000D2*
X-1616000D1*
X-1552000D2*
X-1481000D1*
X-1669000Y449000D2*
X-1616000D1*
X-1552000D2*
X-1481000D1*
X-1669000Y448000D2*
X-1616000D1*
X-1552000D2*
X-1481000D1*
X-1669000Y447000D2*
X-1616000D1*
X-1552000D2*
X-1481000D1*
X-1675000Y446000D2*
X-1622000D1*
X-1552000D2*
X-1481000D1*
X-1675000Y445000D2*
X-1622000D1*
X-1552000D2*
X-1481000D1*
X-1675000Y444000D2*
X-1622000D1*
X-1552000D2*
X-1481000D1*
X-1675000Y443000D2*
X-1622000D1*
X-1552000D2*
X-1481000D1*
X-1675000Y442000D2*
X-1622000D1*
X-1552000D2*
X-1481000D1*
X-1675000Y441000D2*
X-1622000D1*
X-1552000D2*
X-1481000D1*
X-1675000Y440000D2*
X-1616000D1*
X-1552000D2*
X-1534000D1*
X-1498000D2*
X-1481000D1*
X-1464000D2*
X-1394000D1*
X-1352000D2*
X-1335000D1*
X-1294000D2*
X-1223000D1*
X-1206000D2*
X-1188000D1*
X-1159000D2*
X-1094000D1*
X-1065000D2*
X-1048000D1*
X-1006000D2*
X-989000D1*
X-1675000Y439000D2*
X-1616000D1*
X-1552000D2*
X-1534000D1*
X-1498000D2*
X-1481000D1*
X-1464000D2*
X-1394000D1*
X-1352000D2*
X-1335000D1*
X-1294000D2*
X-1223000D1*
X-1206000D2*
X-1188000D1*
X-1159000D2*
X-1094000D1*
X-1065000D2*
X-1048000D1*
X-1006000D2*
X-989000D1*
X-1675000Y438000D2*
X-1616000D1*
X-1552000D2*
X-1534000D1*
X-1498000D2*
X-1481000D1*
X-1464000D2*
X-1394000D1*
X-1352000D2*
X-1335000D1*
X-1294000D2*
X-1223000D1*
X-1206000D2*
X-1188000D1*
X-1159000D2*
X-1094000D1*
X-1065000D2*
X-1048000D1*
X-1006000D2*
X-989000D1*
X-1675000Y437000D2*
X-1616000D1*
X-1552000D2*
X-1534000D1*
X-1498000D2*
X-1481000D1*
X-1464000D2*
X-1394000D1*
X-1352000D2*
X-1335000D1*
X-1294000D2*
X-1223000D1*
X-1206000D2*
X-1188000D1*
X-1159000D2*
X-1094000D1*
X-1065000D2*
X-1048000D1*
X-1006000D2*
X-989000D1*
X-1675000Y436000D2*
X-1616000D1*
X-1552000D2*
X-1534000D1*
X-1498000D2*
X-1481000D1*
X-1464000D2*
X-1394000D1*
X-1352000D2*
X-1335000D1*
X-1294000D2*
X-1223000D1*
X-1206000D2*
X-1188000D1*
X-1159000D2*
X-1094000D1*
X-1065000D2*
X-1048000D1*
X-1006000D2*
X-989000D1*
X-1675000Y435000D2*
X-1616000D1*
X-1552000D2*
X-1534000D1*
X-1498000D2*
X-1481000D1*
X-1464000D2*
X-1394000D1*
X-1352000D2*
X-1335000D1*
X-1294000D2*
X-1223000D1*
X-1206000D2*
X-1188000D1*
X-1159000D2*
X-1094000D1*
X-1065000D2*
X-1048000D1*
X-1006000D2*
X-989000D1*
X-1675000Y434000D2*
X-1616000D1*
X-1552000D2*
X-1534000D1*
X-1498000D2*
X-1481000D1*
X-1464000D2*
X-1394000D1*
X-1352000D2*
X-1335000D1*
X-1294000D2*
X-1223000D1*
X-1206000D2*
X-1188000D1*
X-1165000D2*
X-1088000D1*
X-1065000D2*
X-1042000D1*
X-1006000D2*
X-989000D1*
X-1675000Y433000D2*
X-1616000D1*
X-1552000D2*
X-1534000D1*
X-1498000D2*
X-1481000D1*
X-1464000D2*
X-1394000D1*
X-1352000D2*
X-1335000D1*
X-1294000D2*
X-1223000D1*
X-1206000D2*
X-1188000D1*
X-1165000D2*
X-1088000D1*
X-1065000D2*
X-1042000D1*
X-1006000D2*
X-989000D1*
X-1675000Y432000D2*
X-1616000D1*
X-1552000D2*
X-1534000D1*
X-1498000D2*
X-1481000D1*
X-1464000D2*
X-1394000D1*
X-1352000D2*
X-1335000D1*
X-1294000D2*
X-1223000D1*
X-1206000D2*
X-1188000D1*
X-1165000D2*
X-1088000D1*
X-1065000D2*
X-1042000D1*
X-1006000D2*
X-989000D1*
X-1675000Y431000D2*
X-1616000D1*
X-1552000D2*
X-1534000D1*
X-1498000D2*
X-1481000D1*
X-1464000D2*
X-1394000D1*
X-1352000D2*
X-1335000D1*
X-1294000D2*
X-1223000D1*
X-1206000D2*
X-1188000D1*
X-1165000D2*
X-1088000D1*
X-1065000D2*
X-1042000D1*
X-1006000D2*
X-989000D1*
X-1675000Y430000D2*
X-1616000D1*
X-1552000D2*
X-1534000D1*
X-1498000D2*
X-1481000D1*
X-1464000D2*
X-1394000D1*
X-1352000D2*
X-1335000D1*
X-1294000D2*
X-1223000D1*
X-1206000D2*
X-1188000D1*
X-1165000D2*
X-1088000D1*
X-1065000D2*
X-1042000D1*
X-1006000D2*
X-989000D1*
X-1675000Y429000D2*
X-1616000D1*
X-1552000D2*
X-1534000D1*
X-1498000D2*
X-1481000D1*
X-1464000D2*
X-1394000D1*
X-1352000D2*
X-1335000D1*
X-1294000D2*
X-1223000D1*
X-1206000D2*
X-1188000D1*
X-1165000D2*
X-1088000D1*
X-1065000D2*
X-1042000D1*
X-1006000D2*
X-989000D1*
X-1681000Y428000D2*
X-1616000D1*
X-1552000D2*
X-1534000D1*
X-1464000D2*
X-1394000D1*
X-1358000D2*
X-1329000D1*
X-1294000D2*
X-1223000D1*
X-1206000D2*
X-1188000D1*
X-1165000D2*
X-1088000D1*
X-1065000D2*
X-1042000D1*
X-1006000D2*
X-989000D1*
X-1681000Y427000D2*
X-1616000D1*
X-1552000D2*
X-1534000D1*
X-1464000D2*
X-1394000D1*
X-1358000D2*
X-1329000D1*
X-1294000D2*
X-1223000D1*
X-1206000D2*
X-1188000D1*
X-1165000D2*
X-1088000D1*
X-1065000D2*
X-1042000D1*
X-1006000D2*
X-989000D1*
X-1681000Y426000D2*
X-1616000D1*
X-1552000D2*
X-1534000D1*
X-1464000D2*
X-1394000D1*
X-1358000D2*
X-1329000D1*
X-1294000D2*
X-1223000D1*
X-1206000D2*
X-1188000D1*
X-1165000D2*
X-1088000D1*
X-1065000D2*
X-1042000D1*
X-1006000D2*
X-989000D1*
X-1681000Y425000D2*
X-1616000D1*
X-1552000D2*
X-1534000D1*
X-1464000D2*
X-1394000D1*
X-1358000D2*
X-1329000D1*
X-1294000D2*
X-1223000D1*
X-1206000D2*
X-1188000D1*
X-1165000D2*
X-1088000D1*
X-1065000D2*
X-1042000D1*
X-1006000D2*
X-989000D1*
X-1681000Y424000D2*
X-1616000D1*
X-1552000D2*
X-1534000D1*
X-1464000D2*
X-1394000D1*
X-1358000D2*
X-1329000D1*
X-1294000D2*
X-1223000D1*
X-1206000D2*
X-1188000D1*
X-1165000D2*
X-1088000D1*
X-1065000D2*
X-1042000D1*
X-1006000D2*
X-989000D1*
X-1681000Y423000D2*
X-1616000D1*
X-1552000D2*
X-1534000D1*
X-1464000D2*
X-1394000D1*
X-1358000D2*
X-1329000D1*
X-1294000D2*
X-1223000D1*
X-1206000D2*
X-1188000D1*
X-1165000D2*
X-1088000D1*
X-1065000D2*
X-1036000D1*
X-1006000D2*
X-989000D1*
X-1681000Y422000D2*
X-1622000D1*
X-1552000D2*
X-1534000D1*
X-1434000D2*
X-1417000D1*
X-1358000D2*
X-1329000D1*
X-1264000D2*
X-1247000D1*
X-1206000D2*
X-1188000D1*
X-1165000D2*
X-1148000D1*
X-1106000D2*
X-1088000D1*
X-1065000D2*
X-1036000D1*
X-1006000D2*
X-989000D1*
X-1681000Y421000D2*
X-1622000D1*
X-1552000D2*
X-1534000D1*
X-1434000D2*
X-1417000D1*
X-1358000D2*
X-1329000D1*
X-1264000D2*
X-1247000D1*
X-1206000D2*
X-1188000D1*
X-1165000D2*
X-1148000D1*
X-1106000D2*
X-1088000D1*
X-1065000D2*
X-1036000D1*
X-1006000D2*
X-989000D1*
X-1681000Y420000D2*
X-1622000D1*
X-1552000D2*
X-1534000D1*
X-1434000D2*
X-1417000D1*
X-1358000D2*
X-1329000D1*
X-1264000D2*
X-1247000D1*
X-1206000D2*
X-1188000D1*
X-1165000D2*
X-1148000D1*
X-1106000D2*
X-1088000D1*
X-1065000D2*
X-1036000D1*
X-1006000D2*
X-989000D1*
X-1681000Y419000D2*
X-1622000D1*
X-1552000D2*
X-1534000D1*
X-1434000D2*
X-1417000D1*
X-1358000D2*
X-1329000D1*
X-1264000D2*
X-1247000D1*
X-1206000D2*
X-1188000D1*
X-1165000D2*
X-1148000D1*
X-1106000D2*
X-1088000D1*
X-1065000D2*
X-1036000D1*
X-1006000D2*
X-989000D1*
X-1681000Y418000D2*
X-1622000D1*
X-1552000D2*
X-1534000D1*
X-1434000D2*
X-1417000D1*
X-1358000D2*
X-1329000D1*
X-1264000D2*
X-1247000D1*
X-1206000D2*
X-1188000D1*
X-1165000D2*
X-1148000D1*
X-1106000D2*
X-1088000D1*
X-1065000D2*
X-1036000D1*
X-1006000D2*
X-989000D1*
X-1681000Y417000D2*
X-1622000D1*
X-1552000D2*
X-1487000D1*
X-1434000D2*
X-1417000D1*
X-1358000D2*
X-1329000D1*
X-1264000D2*
X-1247000D1*
X-1206000D2*
X-1188000D1*
X-1165000D2*
X-1148000D1*
X-1106000D2*
X-1088000D1*
X-1065000D2*
X-1030000D1*
X-1006000D2*
X-989000D1*
X-1675000Y416000D2*
X-1622000D1*
X-1552000D2*
X-1487000D1*
X-1434000D2*
X-1417000D1*
X-1358000D2*
X-1329000D1*
X-1264000D2*
X-1247000D1*
X-1206000D2*
X-1188000D1*
X-1165000D2*
X-1148000D1*
X-1106000D2*
X-1088000D1*
X-1065000D2*
X-1030000D1*
X-1006000D2*
X-989000D1*
X-1675000Y415000D2*
X-1622000D1*
X-1552000D2*
X-1487000D1*
X-1434000D2*
X-1417000D1*
X-1358000D2*
X-1329000D1*
X-1264000D2*
X-1247000D1*
X-1206000D2*
X-1188000D1*
X-1165000D2*
X-1148000D1*
X-1106000D2*
X-1088000D1*
X-1065000D2*
X-1030000D1*
X-1006000D2*
X-989000D1*
X-1675000Y414000D2*
X-1622000D1*
X-1552000D2*
X-1487000D1*
X-1434000D2*
X-1417000D1*
X-1358000D2*
X-1329000D1*
X-1264000D2*
X-1247000D1*
X-1206000D2*
X-1188000D1*
X-1165000D2*
X-1148000D1*
X-1106000D2*
X-1088000D1*
X-1065000D2*
X-1030000D1*
X-1006000D2*
X-989000D1*
X-1675000Y413000D2*
X-1622000D1*
X-1552000D2*
X-1487000D1*
X-1434000D2*
X-1417000D1*
X-1358000D2*
X-1329000D1*
X-1264000D2*
X-1247000D1*
X-1206000D2*
X-1188000D1*
X-1165000D2*
X-1148000D1*
X-1106000D2*
X-1088000D1*
X-1065000D2*
X-1030000D1*
X-1006000D2*
X-989000D1*
X-1675000Y412000D2*
X-1622000D1*
X-1552000D2*
X-1487000D1*
X-1434000D2*
X-1417000D1*
X-1358000D2*
X-1329000D1*
X-1264000D2*
X-1247000D1*
X-1206000D2*
X-1188000D1*
X-1165000D2*
X-1148000D1*
X-1106000D2*
X-1088000D1*
X-1065000D2*
X-1030000D1*
X-1006000D2*
X-989000D1*
X-1675000Y411000D2*
X-1622000D1*
X-1552000D2*
X-1481000D1*
X-1434000D2*
X-1417000D1*
X-1364000D2*
X-1323000D1*
X-1264000D2*
X-1247000D1*
X-1206000D2*
X-1188000D1*
X-1165000D2*
X-1148000D1*
X-1106000D2*
X-1088000D1*
X-1065000D2*
X-1030000D1*
X-1006000D2*
X-989000D1*
X-1669000Y410000D2*
X-1622000D1*
X-1552000D2*
X-1481000D1*
X-1434000D2*
X-1417000D1*
X-1364000D2*
X-1346000D1*
X-1340000D2*
X-1323000D1*
X-1264000D2*
X-1247000D1*
X-1206000D2*
X-1188000D1*
X-1165000D2*
X-1148000D1*
X-1106000D2*
X-1088000D1*
X-1065000D2*
X-1030000D1*
X-1006000D2*
X-989000D1*
X-1669000Y409000D2*
X-1622000D1*
X-1552000D2*
X-1481000D1*
X-1434000D2*
X-1417000D1*
X-1364000D2*
X-1346000D1*
X-1340000D2*
X-1323000D1*
X-1264000D2*
X-1247000D1*
X-1206000D2*
X-1188000D1*
X-1165000D2*
X-1148000D1*
X-1106000D2*
X-1088000D1*
X-1065000D2*
X-1030000D1*
X-1006000D2*
X-989000D1*
X-1669000Y408000D2*
X-1622000D1*
X-1552000D2*
X-1481000D1*
X-1434000D2*
X-1417000D1*
X-1364000D2*
X-1346000D1*
X-1340000D2*
X-1323000D1*
X-1264000D2*
X-1247000D1*
X-1206000D2*
X-1188000D1*
X-1165000D2*
X-1148000D1*
X-1106000D2*
X-1088000D1*
X-1065000D2*
X-1030000D1*
X-1006000D2*
X-989000D1*
X-1669000Y407000D2*
X-1622000D1*
X-1552000D2*
X-1481000D1*
X-1434000D2*
X-1417000D1*
X-1364000D2*
X-1346000D1*
X-1340000D2*
X-1323000D1*
X-1264000D2*
X-1247000D1*
X-1206000D2*
X-1188000D1*
X-1165000D2*
X-1148000D1*
X-1106000D2*
X-1088000D1*
X-1065000D2*
X-1030000D1*
X-1006000D2*
X-989000D1*
X-1669000Y406000D2*
X-1622000D1*
X-1552000D2*
X-1481000D1*
X-1434000D2*
X-1417000D1*
X-1364000D2*
X-1346000D1*
X-1340000D2*
X-1323000D1*
X-1264000D2*
X-1247000D1*
X-1206000D2*
X-1188000D1*
X-1165000D2*
X-1148000D1*
X-1106000D2*
X-1088000D1*
X-1065000D2*
X-1030000D1*
X-1006000D2*
X-989000D1*
X-1669000Y405000D2*
X-1622000D1*
X-1552000D2*
X-1481000D1*
X-1434000D2*
X-1417000D1*
X-1364000D2*
X-1346000D1*
X-1340000D2*
X-1323000D1*
X-1264000D2*
X-1247000D1*
X-1206000D2*
X-1188000D1*
X-1165000D2*
X-1148000D1*
X-1106000D2*
X-1088000D1*
X-1065000D2*
X-1024000D1*
X-1006000D2*
X-989000D1*
X-1669000Y404000D2*
X-1628000D1*
X-1552000D2*
X-1481000D1*
X-1434000D2*
X-1417000D1*
X-1364000D2*
X-1346000D1*
X-1340000D2*
X-1323000D1*
X-1264000D2*
X-1247000D1*
X-1206000D2*
X-1188000D1*
X-1165000D2*
X-1148000D1*
X-1106000D2*
X-1088000D1*
X-1065000D2*
X-1024000D1*
X-1006000D2*
X-989000D1*
X-1669000Y403000D2*
X-1628000D1*
X-1552000D2*
X-1481000D1*
X-1434000D2*
X-1417000D1*
X-1364000D2*
X-1346000D1*
X-1340000D2*
X-1323000D1*
X-1264000D2*
X-1247000D1*
X-1206000D2*
X-1188000D1*
X-1165000D2*
X-1148000D1*
X-1106000D2*
X-1088000D1*
X-1065000D2*
X-1024000D1*
X-1006000D2*
X-989000D1*
X-1669000Y402000D2*
X-1628000D1*
X-1552000D2*
X-1481000D1*
X-1434000D2*
X-1417000D1*
X-1364000D2*
X-1346000D1*
X-1340000D2*
X-1323000D1*
X-1264000D2*
X-1247000D1*
X-1206000D2*
X-1188000D1*
X-1165000D2*
X-1148000D1*
X-1106000D2*
X-1088000D1*
X-1065000D2*
X-1024000D1*
X-1006000D2*
X-989000D1*
X-1669000Y401000D2*
X-1628000D1*
X-1552000D2*
X-1481000D1*
X-1434000D2*
X-1417000D1*
X-1364000D2*
X-1346000D1*
X-1340000D2*
X-1323000D1*
X-1264000D2*
X-1247000D1*
X-1206000D2*
X-1188000D1*
X-1165000D2*
X-1148000D1*
X-1106000D2*
X-1088000D1*
X-1065000D2*
X-1024000D1*
X-1006000D2*
X-989000D1*
X-1669000Y400000D2*
X-1628000D1*
X-1552000D2*
X-1481000D1*
X-1434000D2*
X-1417000D1*
X-1364000D2*
X-1346000D1*
X-1340000D2*
X-1323000D1*
X-1264000D2*
X-1247000D1*
X-1206000D2*
X-1188000D1*
X-1165000D2*
X-1148000D1*
X-1106000D2*
X-1088000D1*
X-1065000D2*
X-1024000D1*
X-1006000D2*
X-989000D1*
X-1669000Y399000D2*
X-1628000D1*
X-1552000D2*
X-1481000D1*
X-1434000D2*
X-1417000D1*
X-1364000D2*
X-1346000D1*
X-1340000D2*
X-1317000D1*
X-1264000D2*
X-1247000D1*
X-1206000D2*
X-1188000D1*
X-1165000D2*
X-1148000D1*
X-1106000D2*
X-1088000D1*
X-1065000D2*
X-1019000D1*
X-1006000D2*
X-989000D1*
X-1669000Y398000D2*
X-1652000D1*
X-1546000D2*
X-1481000D1*
X-1434000D2*
X-1417000D1*
X-1364000D2*
X-1346000D1*
X-1335000D2*
X-1317000D1*
X-1264000D2*
X-1247000D1*
X-1206000D2*
X-1188000D1*
X-1165000D2*
X-1148000D1*
X-1106000D2*
X-1088000D1*
X-1065000D2*
X-1048000D1*
X-1042000D2*
X-1019000D1*
X-1006000D2*
X-989000D1*
X-1669000Y397000D2*
X-1652000D1*
X-1546000D2*
X-1481000D1*
X-1434000D2*
X-1417000D1*
X-1364000D2*
X-1346000D1*
X-1335000D2*
X-1317000D1*
X-1264000D2*
X-1247000D1*
X-1206000D2*
X-1188000D1*
X-1165000D2*
X-1148000D1*
X-1106000D2*
X-1088000D1*
X-1065000D2*
X-1048000D1*
X-1042000D2*
X-1019000D1*
X-1006000D2*
X-989000D1*
X-1669000Y396000D2*
X-1652000D1*
X-1546000D2*
X-1481000D1*
X-1434000D2*
X-1417000D1*
X-1364000D2*
X-1346000D1*
X-1335000D2*
X-1317000D1*
X-1264000D2*
X-1247000D1*
X-1206000D2*
X-1188000D1*
X-1165000D2*
X-1148000D1*
X-1106000D2*
X-1088000D1*
X-1065000D2*
X-1048000D1*
X-1042000D2*
X-1019000D1*
X-1006000D2*
X-989000D1*
X-1669000Y395000D2*
X-1652000D1*
X-1546000D2*
X-1481000D1*
X-1434000D2*
X-1417000D1*
X-1364000D2*
X-1346000D1*
X-1335000D2*
X-1317000D1*
X-1264000D2*
X-1247000D1*
X-1206000D2*
X-1188000D1*
X-1165000D2*
X-1148000D1*
X-1106000D2*
X-1088000D1*
X-1065000D2*
X-1048000D1*
X-1042000D2*
X-1019000D1*
X-1006000D2*
X-989000D1*
X-1669000Y394000D2*
X-1652000D1*
X-1546000D2*
X-1481000D1*
X-1434000D2*
X-1417000D1*
X-1370000D2*
X-1346000D1*
X-1335000D2*
X-1317000D1*
X-1264000D2*
X-1247000D1*
X-1206000D2*
X-1188000D1*
X-1165000D2*
X-1148000D1*
X-1106000D2*
X-1088000D1*
X-1065000D2*
X-1048000D1*
X-1042000D2*
X-1019000D1*
X-1006000D2*
X-989000D1*
X-1669000Y393000D2*
X-1652000D1*
X-1498000D2*
X-1481000D1*
X-1434000D2*
X-1417000D1*
X-1370000D2*
X-1352000D1*
X-1335000D2*
X-1317000D1*
X-1264000D2*
X-1247000D1*
X-1206000D2*
X-1188000D1*
X-1165000D2*
X-1148000D1*
X-1106000D2*
X-1088000D1*
X-1065000D2*
X-1048000D1*
X-1036000D2*
X-1019000D1*
X-1006000D2*
X-989000D1*
X-1669000Y392000D2*
X-1652000D1*
X-1498000D2*
X-1481000D1*
X-1434000D2*
X-1417000D1*
X-1370000D2*
X-1352000D1*
X-1335000D2*
X-1317000D1*
X-1264000D2*
X-1247000D1*
X-1206000D2*
X-1188000D1*
X-1165000D2*
X-1148000D1*
X-1106000D2*
X-1088000D1*
X-1065000D2*
X-1048000D1*
X-1036000D2*
X-1019000D1*
X-1006000D2*
X-989000D1*
X-1669000Y391000D2*
X-1652000D1*
X-1498000D2*
X-1481000D1*
X-1434000D2*
X-1417000D1*
X-1370000D2*
X-1352000D1*
X-1335000D2*
X-1317000D1*
X-1264000D2*
X-1247000D1*
X-1206000D2*
X-1188000D1*
X-1165000D2*
X-1148000D1*
X-1106000D2*
X-1088000D1*
X-1065000D2*
X-1048000D1*
X-1036000D2*
X-1019000D1*
X-1006000D2*
X-989000D1*
X-1669000Y390000D2*
X-1652000D1*
X-1498000D2*
X-1481000D1*
X-1434000D2*
X-1417000D1*
X-1370000D2*
X-1352000D1*
X-1335000D2*
X-1317000D1*
X-1264000D2*
X-1247000D1*
X-1206000D2*
X-1188000D1*
X-1165000D2*
X-1148000D1*
X-1106000D2*
X-1088000D1*
X-1065000D2*
X-1048000D1*
X-1036000D2*
X-1019000D1*
X-1006000D2*
X-989000D1*
X-1669000Y389000D2*
X-1652000D1*
X-1498000D2*
X-1481000D1*
X-1434000D2*
X-1417000D1*
X-1370000D2*
X-1352000D1*
X-1335000D2*
X-1317000D1*
X-1264000D2*
X-1247000D1*
X-1206000D2*
X-1188000D1*
X-1165000D2*
X-1148000D1*
X-1106000D2*
X-1088000D1*
X-1065000D2*
X-1048000D1*
X-1036000D2*
X-1019000D1*
X-1006000D2*
X-989000D1*
X-1675000Y388000D2*
X-1652000D1*
X-1498000D2*
X-1481000D1*
X-1434000D2*
X-1417000D1*
X-1370000D2*
X-1352000D1*
X-1335000D2*
X-1317000D1*
X-1264000D2*
X-1247000D1*
X-1206000D2*
X-1188000D1*
X-1165000D2*
X-1148000D1*
X-1106000D2*
X-1088000D1*
X-1065000D2*
X-1048000D1*
X-1036000D2*
X-1013000D1*
X-1006000D2*
X-989000D1*
X-1675000Y387000D2*
X-1652000D1*
X-1498000D2*
X-1481000D1*
X-1434000D2*
X-1417000D1*
X-1370000D2*
X-1352000D1*
X-1335000D2*
X-1317000D1*
X-1264000D2*
X-1247000D1*
X-1206000D2*
X-1188000D1*
X-1165000D2*
X-1148000D1*
X-1106000D2*
X-1088000D1*
X-1065000D2*
X-1048000D1*
X-1036000D2*
X-1013000D1*
X-1006000D2*
X-989000D1*
X-1675000Y386000D2*
X-1652000D1*
X-1498000D2*
X-1481000D1*
X-1434000D2*
X-1417000D1*
X-1370000D2*
X-1352000D1*
X-1335000D2*
X-1317000D1*
X-1264000D2*
X-1247000D1*
X-1206000D2*
X-1188000D1*
X-1165000D2*
X-1148000D1*
X-1106000D2*
X-1088000D1*
X-1065000D2*
X-1048000D1*
X-1036000D2*
X-1013000D1*
X-1006000D2*
X-989000D1*
X-1675000Y385000D2*
X-1652000D1*
X-1498000D2*
X-1481000D1*
X-1434000D2*
X-1417000D1*
X-1370000D2*
X-1352000D1*
X-1335000D2*
X-1317000D1*
X-1264000D2*
X-1247000D1*
X-1206000D2*
X-1188000D1*
X-1165000D2*
X-1148000D1*
X-1106000D2*
X-1088000D1*
X-1065000D2*
X-1048000D1*
X-1036000D2*
X-1013000D1*
X-1006000D2*
X-989000D1*
X-1675000Y384000D2*
X-1652000D1*
X-1498000D2*
X-1481000D1*
X-1434000D2*
X-1417000D1*
X-1370000D2*
X-1352000D1*
X-1335000D2*
X-1317000D1*
X-1264000D2*
X-1247000D1*
X-1206000D2*
X-1188000D1*
X-1165000D2*
X-1148000D1*
X-1106000D2*
X-1088000D1*
X-1065000D2*
X-1048000D1*
X-1036000D2*
X-1013000D1*
X-1006000D2*
X-989000D1*
X-1675000Y383000D2*
X-1652000D1*
X-1498000D2*
X-1481000D1*
X-1434000D2*
X-1417000D1*
X-1370000D2*
X-1352000D1*
X-1335000D2*
X-1317000D1*
X-1264000D2*
X-1247000D1*
X-1206000D2*
X-1188000D1*
X-1165000D2*
X-1148000D1*
X-1106000D2*
X-1088000D1*
X-1065000D2*
X-1048000D1*
X-1036000D2*
X-1013000D1*
X-1006000D2*
X-989000D1*
X-1675000Y382000D2*
X-1652000D1*
X-1558000D2*
X-1540000D1*
X-1498000D2*
X-1481000D1*
X-1434000D2*
X-1417000D1*
X-1370000D2*
X-1311000D1*
X-1264000D2*
X-1247000D1*
X-1206000D2*
X-1188000D1*
X-1165000D2*
X-1148000D1*
X-1106000D2*
X-1088000D1*
X-1065000D2*
X-1048000D1*
X-1036000D2*
X-989000D1*
X-1675000Y381000D2*
X-1652000D1*
X-1558000D2*
X-1540000D1*
X-1498000D2*
X-1481000D1*
X-1434000D2*
X-1417000D1*
X-1370000D2*
X-1311000D1*
X-1264000D2*
X-1247000D1*
X-1206000D2*
X-1188000D1*
X-1165000D2*
X-1148000D1*
X-1106000D2*
X-1088000D1*
X-1065000D2*
X-1048000D1*
X-1030000D2*
X-989000D1*
X-1675000Y380000D2*
X-1652000D1*
X-1558000D2*
X-1540000D1*
X-1498000D2*
X-1481000D1*
X-1434000D2*
X-1417000D1*
X-1370000D2*
X-1311000D1*
X-1264000D2*
X-1247000D1*
X-1206000D2*
X-1188000D1*
X-1165000D2*
X-1148000D1*
X-1106000D2*
X-1088000D1*
X-1065000D2*
X-1048000D1*
X-1030000D2*
X-989000D1*
X-1675000Y379000D2*
X-1652000D1*
X-1558000D2*
X-1540000D1*
X-1498000D2*
X-1481000D1*
X-1434000D2*
X-1417000D1*
X-1370000D2*
X-1311000D1*
X-1264000D2*
X-1247000D1*
X-1206000D2*
X-1188000D1*
X-1165000D2*
X-1148000D1*
X-1106000D2*
X-1088000D1*
X-1065000D2*
X-1048000D1*
X-1030000D2*
X-989000D1*
X-1675000Y378000D2*
X-1652000D1*
X-1558000D2*
X-1540000D1*
X-1498000D2*
X-1481000D1*
X-1434000D2*
X-1417000D1*
X-1370000D2*
X-1311000D1*
X-1264000D2*
X-1247000D1*
X-1206000D2*
X-1188000D1*
X-1165000D2*
X-1148000D1*
X-1106000D2*
X-1088000D1*
X-1065000D2*
X-1048000D1*
X-1030000D2*
X-989000D1*
X-1675000Y377000D2*
X-1652000D1*
X-1558000D2*
X-1540000D1*
X-1498000D2*
X-1481000D1*
X-1434000D2*
X-1417000D1*
X-1370000D2*
X-1311000D1*
X-1264000D2*
X-1247000D1*
X-1206000D2*
X-1188000D1*
X-1165000D2*
X-1148000D1*
X-1106000D2*
X-1088000D1*
X-1065000D2*
X-1048000D1*
X-1030000D2*
X-989000D1*
X-1675000Y376000D2*
X-1652000D1*
X-1558000D2*
X-1540000D1*
X-1498000D2*
X-1481000D1*
X-1434000D2*
X-1417000D1*
X-1375000D2*
X-1311000D1*
X-1264000D2*
X-1247000D1*
X-1206000D2*
X-1188000D1*
X-1165000D2*
X-1148000D1*
X-1106000D2*
X-1088000D1*
X-1065000D2*
X-1048000D1*
X-1030000D2*
X-989000D1*
X-1675000Y375000D2*
X-1657000D1*
X-1558000D2*
X-1540000D1*
X-1498000D2*
X-1481000D1*
X-1434000D2*
X-1417000D1*
X-1375000D2*
X-1311000D1*
X-1264000D2*
X-1247000D1*
X-1206000D2*
X-1188000D1*
X-1165000D2*
X-1148000D1*
X-1106000D2*
X-1088000D1*
X-1065000D2*
X-1048000D1*
X-1024000D2*
X-989000D1*
X-1675000Y374000D2*
X-1657000D1*
X-1558000D2*
X-1540000D1*
X-1498000D2*
X-1481000D1*
X-1434000D2*
X-1417000D1*
X-1375000D2*
X-1311000D1*
X-1264000D2*
X-1247000D1*
X-1206000D2*
X-1188000D1*
X-1165000D2*
X-1148000D1*
X-1106000D2*
X-1088000D1*
X-1065000D2*
X-1048000D1*
X-1024000D2*
X-989000D1*
X-1675000Y373000D2*
X-1657000D1*
X-1558000D2*
X-1540000D1*
X-1498000D2*
X-1481000D1*
X-1434000D2*
X-1417000D1*
X-1375000D2*
X-1311000D1*
X-1264000D2*
X-1247000D1*
X-1206000D2*
X-1188000D1*
X-1165000D2*
X-1148000D1*
X-1106000D2*
X-1088000D1*
X-1065000D2*
X-1048000D1*
X-1024000D2*
X-989000D1*
X-1675000Y372000D2*
X-1657000D1*
X-1558000D2*
X-1540000D1*
X-1498000D2*
X-1481000D1*
X-1434000D2*
X-1417000D1*
X-1375000D2*
X-1311000D1*
X-1264000D2*
X-1247000D1*
X-1206000D2*
X-1188000D1*
X-1165000D2*
X-1148000D1*
X-1106000D2*
X-1088000D1*
X-1065000D2*
X-1048000D1*
X-1024000D2*
X-989000D1*
X-1681000Y371000D2*
X-1657000D1*
X-1558000D2*
X-1540000D1*
X-1498000D2*
X-1481000D1*
X-1434000D2*
X-1417000D1*
X-1375000D2*
X-1311000D1*
X-1264000D2*
X-1247000D1*
X-1206000D2*
X-1188000D1*
X-1165000D2*
X-1148000D1*
X-1106000D2*
X-1088000D1*
X-1065000D2*
X-1048000D1*
X-1024000D2*
X-989000D1*
X-1681000Y370000D2*
X-1657000D1*
X-1558000D2*
X-1540000D1*
X-1498000D2*
X-1481000D1*
X-1434000D2*
X-1417000D1*
X-1375000D2*
X-1311000D1*
X-1264000D2*
X-1247000D1*
X-1206000D2*
X-1188000D1*
X-1165000D2*
X-1148000D1*
X-1106000D2*
X-1088000D1*
X-1065000D2*
X-1048000D1*
X-1018000D2*
X-989000D1*
X-1681000Y369000D2*
X-1657000D1*
X-1558000D2*
X-1540000D1*
X-1498000D2*
X-1481000D1*
X-1434000D2*
X-1417000D1*
X-1375000D2*
X-1311000D1*
X-1264000D2*
X-1247000D1*
X-1206000D2*
X-1188000D1*
X-1165000D2*
X-1148000D1*
X-1106000D2*
X-1088000D1*
X-1065000D2*
X-1048000D1*
X-1018000D2*
X-989000D1*
X-1681000Y368000D2*
X-1657000D1*
X-1558000D2*
X-1540000D1*
X-1498000D2*
X-1481000D1*
X-1434000D2*
X-1417000D1*
X-1375000D2*
X-1311000D1*
X-1264000D2*
X-1247000D1*
X-1206000D2*
X-1188000D1*
X-1165000D2*
X-1148000D1*
X-1106000D2*
X-1088000D1*
X-1065000D2*
X-1048000D1*
X-1018000D2*
X-989000D1*
X-1681000Y367000D2*
X-1657000D1*
X-1558000D2*
X-1540000D1*
X-1498000D2*
X-1481000D1*
X-1434000D2*
X-1417000D1*
X-1375000D2*
X-1311000D1*
X-1264000D2*
X-1247000D1*
X-1206000D2*
X-1188000D1*
X-1165000D2*
X-1148000D1*
X-1106000D2*
X-1088000D1*
X-1065000D2*
X-1048000D1*
X-1018000D2*
X-989000D1*
X-1681000Y366000D2*
X-1657000D1*
X-1558000D2*
X-1540000D1*
X-1498000D2*
X-1481000D1*
X-1434000D2*
X-1417000D1*
X-1375000D2*
X-1311000D1*
X-1264000D2*
X-1247000D1*
X-1206000D2*
X-1188000D1*
X-1165000D2*
X-1148000D1*
X-1106000D2*
X-1088000D1*
X-1065000D2*
X-1048000D1*
X-1018000D2*
X-989000D1*
X-1681000Y365000D2*
X-1657000D1*
X-1558000D2*
X-1481000D1*
X-1434000D2*
X-1417000D1*
X-1381000D2*
X-1306000D1*
X-1264000D2*
X-1247000D1*
X-1206000D2*
X-1188000D1*
X-1165000D2*
X-1148000D1*
X-1106000D2*
X-1088000D1*
X-1065000D2*
X-1048000D1*
X-1018000D2*
X-989000D1*
X-1681000Y364000D2*
X-1663000D1*
X-1558000D2*
X-1481000D1*
X-1434000D2*
X-1417000D1*
X-1381000D2*
X-1358000D1*
X-1323000D2*
X-1306000D1*
X-1264000D2*
X-1247000D1*
X-1206000D2*
X-1188000D1*
X-1165000D2*
X-1148000D1*
X-1106000D2*
X-1088000D1*
X-1065000D2*
X-1048000D1*
X-1018000D2*
X-989000D1*
X-1681000Y363000D2*
X-1663000D1*
X-1558000D2*
X-1481000D1*
X-1434000D2*
X-1417000D1*
X-1381000D2*
X-1358000D1*
X-1323000D2*
X-1306000D1*
X-1264000D2*
X-1247000D1*
X-1206000D2*
X-1188000D1*
X-1165000D2*
X-1148000D1*
X-1106000D2*
X-1088000D1*
X-1065000D2*
X-1048000D1*
X-1018000D2*
X-989000D1*
X-1681000Y362000D2*
X-1663000D1*
X-1558000D2*
X-1481000D1*
X-1434000D2*
X-1417000D1*
X-1381000D2*
X-1358000D1*
X-1323000D2*
X-1306000D1*
X-1264000D2*
X-1247000D1*
X-1206000D2*
X-1188000D1*
X-1165000D2*
X-1148000D1*
X-1106000D2*
X-1088000D1*
X-1065000D2*
X-1048000D1*
X-1018000D2*
X-989000D1*
X-1681000Y361000D2*
X-1663000D1*
X-1558000D2*
X-1481000D1*
X-1434000D2*
X-1417000D1*
X-1381000D2*
X-1358000D1*
X-1323000D2*
X-1306000D1*
X-1264000D2*
X-1247000D1*
X-1206000D2*
X-1188000D1*
X-1165000D2*
X-1148000D1*
X-1106000D2*
X-1088000D1*
X-1065000D2*
X-1048000D1*
X-1018000D2*
X-989000D1*
X-1681000Y360000D2*
X-1663000D1*
X-1558000D2*
X-1481000D1*
X-1434000D2*
X-1417000D1*
X-1381000D2*
X-1358000D1*
X-1323000D2*
X-1306000D1*
X-1264000D2*
X-1247000D1*
X-1206000D2*
X-1188000D1*
X-1165000D2*
X-1148000D1*
X-1106000D2*
X-1088000D1*
X-1065000D2*
X-1048000D1*
X-1018000D2*
X-989000D1*
X-1681000Y359000D2*
X-1663000D1*
X-1558000D2*
X-1481000D1*
X-1434000D2*
X-1417000D1*
X-1381000D2*
X-1358000D1*
X-1323000D2*
X-1306000D1*
X-1264000D2*
X-1247000D1*
X-1206000D2*
X-1188000D1*
X-1165000D2*
X-1088000D1*
X-1065000D2*
X-1048000D1*
X-1018000D2*
X-989000D1*
X-1681000Y358000D2*
X-1663000D1*
X-1558000D2*
X-1481000D1*
X-1434000D2*
X-1417000D1*
X-1381000D2*
X-1364000D1*
X-1323000D2*
X-1306000D1*
X-1264000D2*
X-1247000D1*
X-1206000D2*
X-1188000D1*
X-1165000D2*
X-1088000D1*
X-1065000D2*
X-1048000D1*
X-1012000D2*
X-989000D1*
X-1681000Y357000D2*
X-1663000D1*
X-1558000D2*
X-1481000D1*
X-1434000D2*
X-1417000D1*
X-1381000D2*
X-1364000D1*
X-1323000D2*
X-1306000D1*
X-1264000D2*
X-1247000D1*
X-1206000D2*
X-1188000D1*
X-1165000D2*
X-1088000D1*
X-1065000D2*
X-1048000D1*
X-1012000D2*
X-989000D1*
X-1681000Y356000D2*
X-1663000D1*
X-1558000D2*
X-1481000D1*
X-1434000D2*
X-1417000D1*
X-1381000D2*
X-1364000D1*
X-1323000D2*
X-1306000D1*
X-1264000D2*
X-1247000D1*
X-1206000D2*
X-1188000D1*
X-1165000D2*
X-1088000D1*
X-1065000D2*
X-1048000D1*
X-1012000D2*
X-989000D1*
X-1681000Y355000D2*
X-1663000D1*
X-1558000D2*
X-1481000D1*
X-1434000D2*
X-1417000D1*
X-1381000D2*
X-1364000D1*
X-1323000D2*
X-1306000D1*
X-1264000D2*
X-1247000D1*
X-1206000D2*
X-1188000D1*
X-1165000D2*
X-1088000D1*
X-1065000D2*
X-1048000D1*
X-1012000D2*
X-989000D1*
X-1681000Y354000D2*
X-1663000D1*
X-1558000D2*
X-1481000D1*
X-1434000D2*
X-1417000D1*
X-1381000D2*
X-1364000D1*
X-1323000D2*
X-1306000D1*
X-1264000D2*
X-1247000D1*
X-1206000D2*
X-1188000D1*
X-1165000D2*
X-1088000D1*
X-1065000D2*
X-1048000D1*
X-1012000D2*
X-989000D1*
X-1681000Y353000D2*
X-1663000D1*
X-1558000D2*
X-1481000D1*
X-1434000D2*
X-1417000D1*
X-1381000D2*
X-1364000D1*
X-1323000D2*
X-1300000D1*
X-1264000D2*
X-1247000D1*
X-1206000D2*
X-1188000D1*
X-1165000D2*
X-1088000D1*
X-1065000D2*
X-1048000D1*
X-1012000D2*
X-989000D1*
X-1681000Y352000D2*
X-1663000D1*
X-1558000D2*
X-1481000D1*
X-1434000D2*
X-1417000D1*
X-1381000D2*
X-1364000D1*
X-1323000D2*
X-1300000D1*
X-1264000D2*
X-1247000D1*
X-1206000D2*
X-1188000D1*
X-1165000D2*
X-1088000D1*
X-1065000D2*
X-1048000D1*
X-1006000D2*
X-989000D1*
X-1681000Y351000D2*
X-1663000D1*
X-1558000D2*
X-1481000D1*
X-1434000D2*
X-1417000D1*
X-1381000D2*
X-1364000D1*
X-1323000D2*
X-1300000D1*
X-1264000D2*
X-1247000D1*
X-1206000D2*
X-1188000D1*
X-1165000D2*
X-1088000D1*
X-1065000D2*
X-1048000D1*
X-1006000D2*
X-989000D1*
X-1681000Y350000D2*
X-1663000D1*
X-1558000D2*
X-1481000D1*
X-1434000D2*
X-1417000D1*
X-1381000D2*
X-1364000D1*
X-1323000D2*
X-1300000D1*
X-1264000D2*
X-1247000D1*
X-1206000D2*
X-1188000D1*
X-1165000D2*
X-1088000D1*
X-1065000D2*
X-1048000D1*
X-1006000D2*
X-989000D1*
X-1681000Y349000D2*
X-1663000D1*
X-1558000D2*
X-1481000D1*
X-1434000D2*
X-1417000D1*
X-1381000D2*
X-1364000D1*
X-1323000D2*
X-1300000D1*
X-1264000D2*
X-1247000D1*
X-1206000D2*
X-1188000D1*
X-1165000D2*
X-1088000D1*
X-1065000D2*
X-1048000D1*
X-1006000D2*
X-989000D1*
X-1681000Y348000D2*
X-1663000D1*
X-1558000D2*
X-1481000D1*
X-1434000D2*
X-1417000D1*
X-1381000D2*
X-1364000D1*
X-1323000D2*
X-1300000D1*
X-1264000D2*
X-1247000D1*
X-1206000D2*
X-1188000D1*
X-1165000D2*
X-1088000D1*
X-1065000D2*
X-1048000D1*
X-1006000D2*
X-989000D1*
X-1681000Y347000D2*
X-1663000D1*
X-1558000D2*
X-1481000D1*
X-1434000D2*
X-1417000D1*
X-1381000D2*
X-1364000D1*
X-1323000D2*
X-1300000D1*
X-1264000D2*
X-1247000D1*
X-1206000D2*
X-1188000D1*
X-1165000D2*
X-1088000D1*
X-1065000D2*
X-1048000D1*
X-1006000D2*
X-989000D1*
X-1681000Y346000D2*
X-1669000D1*
X-1552000D2*
X-1487000D1*
X-1434000D2*
X-1417000D1*
X-1381000D2*
X-1364000D1*
X-1323000D2*
X-1300000D1*
X-1264000D2*
X-1247000D1*
X-1206000D2*
X-1188000D1*
X-1159000D2*
X-1094000D1*
X-1065000D2*
X-1048000D1*
X-1006000D2*
X-989000D1*
X-1681000Y345000D2*
X-1669000D1*
X-1552000D2*
X-1487000D1*
X-1434000D2*
X-1417000D1*
X-1381000D2*
X-1364000D1*
X-1323000D2*
X-1300000D1*
X-1264000D2*
X-1247000D1*
X-1206000D2*
X-1188000D1*
X-1159000D2*
X-1094000D1*
X-1065000D2*
X-1048000D1*
X-1006000D2*
X-989000D1*
X-1681000Y344000D2*
X-1669000D1*
X-1552000D2*
X-1487000D1*
X-1434000D2*
X-1417000D1*
X-1381000D2*
X-1364000D1*
X-1323000D2*
X-1300000D1*
X-1264000D2*
X-1247000D1*
X-1206000D2*
X-1188000D1*
X-1159000D2*
X-1094000D1*
X-1065000D2*
X-1048000D1*
X-1006000D2*
X-989000D1*
X-1681000Y343000D2*
X-1669000D1*
X-1552000D2*
X-1487000D1*
X-1434000D2*
X-1417000D1*
X-1381000D2*
X-1364000D1*
X-1323000D2*
X-1300000D1*
X-1264000D2*
X-1247000D1*
X-1206000D2*
X-1188000D1*
X-1159000D2*
X-1094000D1*
X-1065000D2*
X-1048000D1*
X-1006000D2*
X-989000D1*
X-1681000Y342000D2*
X-1669000D1*
X-1552000D2*
X-1487000D1*
X-1434000D2*
X-1417000D1*
X-1381000D2*
X-1364000D1*
X-1323000D2*
X-1300000D1*
X-1264000D2*
X-1247000D1*
X-1206000D2*
X-1188000D1*
X-1159000D2*
X-1094000D1*
X-1065000D2*
X-1048000D1*
X-1006000D2*
X-989000D1*
X-1681000Y341000D2*
X-1675000D1*
X-1681000Y340000D2*
X-1675000D1*
X-1681000Y339000D2*
X-1675000D1*
X-1681000Y338000D2*
X-1675000D1*
X-1681000Y337000D2*
X-1675000D1*
X-1681000Y336000D2*
X-1675000D1*
X-1687000Y335000D2*
X-1675000D1*
X-1687000Y334000D2*
X-1675000D1*
X-1687000Y333000D2*
X-1675000D1*
X-1687000Y332000D2*
X-1675000D1*
X-1687000Y331000D2*
X-1675000D1*
X-1687000Y330000D2*
X-1675000D1*
X-1687000Y329000D2*
X-1675000D1*
X-1687000Y328000D2*
X-1675000D1*
X-1687000Y327000D2*
X-1675000D1*
X-1687000Y326000D2*
X-1675000D1*
X-1687000Y325000D2*
X-1675000D1*
X-1687000Y324000D2*
X-1675000D1*
X-1687000Y323000D2*
X-1681000D1*
X-1687000Y322000D2*
X-1681000D1*
X-1687000Y321000D2*
X-1681000D1*
X-1687000Y320000D2*
X-1681000D1*
X-1687000Y319000D2*
X-1681000D1*
X-1687000Y318000D2*
X-1681000D1*
X-1575000Y587000D2*
Y586000D1*
Y585000D1*
Y584000D1*
Y583000D1*
Y582000D1*
Y581000D1*
X-1558000Y587000D2*
Y586000D1*
Y585000D1*
Y584000D1*
Y583000D1*
Y582000D1*
Y581000D1*
Y580000D1*
Y579000D1*
Y578000D1*
Y577000D1*
Y576000D1*
Y575000D1*
Y574000D1*
X-1569000D1*
Y573000D1*
Y572000D1*
Y571000D1*
Y570000D1*
Y569000D1*
X-1587000Y581000D2*
Y580000D1*
Y579000D1*
Y578000D1*
Y577000D1*
Y576000D1*
Y575000D1*
X-1592000D1*
Y574000D1*
Y573000D1*
Y572000D1*
Y571000D1*
Y570000D1*
Y569000D1*
X-1610000D2*
Y568000D1*
Y567000D1*
Y566000D1*
Y565000D1*
Y564000D1*
Y563000D1*
X-1581000Y569000D2*
Y568000D1*
Y567000D1*
Y566000D1*
Y565000D1*
Y564000D1*
Y563000D1*
Y562000D1*
X-1587000D1*
Y561000D1*
Y560000D1*
Y559000D1*
Y558000D1*
Y557000D1*
X-1592000D1*
Y556000D1*
Y555000D1*
Y554000D1*
Y553000D1*
Y552000D1*
Y551000D1*
Y550000D1*
Y549000D1*
Y548000D1*
Y547000D1*
Y546000D1*
Y545000D1*
Y544000D1*
Y543000D1*
Y542000D1*
Y541000D1*
Y540000D1*
Y539000D1*
Y538000D1*
Y537000D1*
Y536000D1*
Y535000D1*
Y534000D1*
Y533000D1*
Y532000D1*
Y531000D1*
Y530000D1*
Y529000D1*
Y528000D1*
Y527000D1*
X-1598000D1*
Y526000D1*
Y525000D1*
Y524000D1*
Y523000D1*
Y522000D1*
Y521000D1*
Y520000D1*
Y519000D1*
Y518000D1*
Y517000D1*
Y516000D1*
Y515000D1*
Y514000D1*
Y513000D1*
Y512000D1*
Y511000D1*
Y510000D1*
Y509000D1*
X-1604000D1*
Y508000D1*
Y507000D1*
Y506000D1*
Y505000D1*
Y504000D1*
Y503000D1*
Y502000D1*
Y501000D1*
Y500000D1*
Y499000D1*
Y498000D1*
Y497000D1*
Y496000D1*
Y495000D1*
Y494000D1*
Y493000D1*
Y492000D1*
Y491000D1*
Y490000D1*
Y489000D1*
Y488000D1*
Y487000D1*
Y486000D1*
X-1610000D1*
Y485000D1*
Y484000D1*
Y483000D1*
Y482000D1*
Y481000D1*
Y480000D1*
Y479000D1*
Y478000D1*
Y477000D1*
Y476000D1*
Y475000D1*
Y474000D1*
Y473000D1*
Y472000D1*
Y471000D1*
Y470000D1*
Y469000D1*
X-1616000D1*
Y468000D1*
Y467000D1*
Y466000D1*
Y465000D1*
Y464000D1*
Y463000D1*
Y462000D1*
Y461000D1*
Y460000D1*
Y459000D1*
Y458000D1*
Y457000D1*
Y456000D1*
Y455000D1*
Y454000D1*
Y453000D1*
Y452000D1*
Y451000D1*
Y450000D1*
Y449000D1*
Y448000D1*
Y447000D1*
Y446000D1*
X-1622000D1*
Y445000D1*
Y444000D1*
Y443000D1*
Y442000D1*
Y441000D1*
Y440000D1*
X-1616000D1*
Y439000D1*
Y438000D1*
Y437000D1*
Y436000D1*
Y435000D1*
Y434000D1*
Y433000D1*
Y432000D1*
Y431000D1*
Y430000D1*
Y429000D1*
Y428000D1*
Y427000D1*
Y426000D1*
Y425000D1*
Y424000D1*
Y423000D1*
Y422000D1*
X-1622000D1*
Y421000D1*
Y420000D1*
Y419000D1*
Y418000D1*
Y417000D1*
Y416000D1*
Y415000D1*
Y414000D1*
Y413000D1*
Y412000D1*
Y411000D1*
Y410000D1*
Y409000D1*
Y408000D1*
Y407000D1*
Y406000D1*
Y405000D1*
Y404000D1*
X-1628000D1*
Y403000D1*
Y402000D1*
Y401000D1*
Y400000D1*
Y399000D1*
X-1622000Y563000D2*
Y562000D1*
Y561000D1*
Y560000D1*
Y559000D1*
Y558000D1*
Y557000D1*
Y556000D1*
Y555000D1*
Y554000D1*
Y553000D1*
Y552000D1*
Y551000D1*
X-1627000D1*
Y550000D1*
Y549000D1*
Y548000D1*
Y547000D1*
Y546000D1*
Y545000D1*
Y544000D1*
Y543000D1*
Y542000D1*
Y541000D1*
Y540000D1*
Y539000D1*
Y538000D1*
Y537000D1*
Y536000D1*
Y535000D1*
Y534000D1*
Y533000D1*
X-1633000D1*
Y532000D1*
Y531000D1*
Y530000D1*
Y529000D1*
Y528000D1*
Y527000D1*
Y526000D1*
Y525000D1*
Y524000D1*
Y523000D1*
Y522000D1*
Y521000D1*
Y520000D1*
Y519000D1*
Y518000D1*
Y517000D1*
Y516000D1*
X-1639000D1*
Y515000D1*
Y514000D1*
Y513000D1*
Y512000D1*
Y511000D1*
Y510000D1*
Y509000D1*
Y508000D1*
Y507000D1*
Y506000D1*
Y505000D1*
X-1645000D1*
Y504000D1*
Y503000D1*
Y502000D1*
Y501000D1*
Y500000D1*
Y499000D1*
Y498000D1*
Y497000D1*
Y496000D1*
Y495000D1*
Y494000D1*
Y493000D1*
Y492000D1*
Y491000D1*
Y490000D1*
Y489000D1*
Y488000D1*
Y487000D1*
X-1651000D1*
Y486000D1*
Y485000D1*
Y484000D1*
Y483000D1*
Y482000D1*
Y481000D1*
Y480000D1*
Y479000D1*
Y478000D1*
Y477000D1*
Y476000D1*
Y475000D1*
Y474000D1*
Y473000D1*
Y472000D1*
Y471000D1*
Y470000D1*
X-1657000D1*
Y469000D1*
Y468000D1*
Y467000D1*
Y466000D1*
Y465000D1*
Y464000D1*
Y463000D1*
Y462000D1*
Y461000D1*
Y460000D1*
Y459000D1*
Y458000D1*
X-1663000D1*
Y457000D1*
Y456000D1*
Y455000D1*
Y454000D1*
Y453000D1*
Y452000D1*
X-1669000D1*
Y451000D1*
Y450000D1*
Y449000D1*
Y448000D1*
Y447000D1*
Y446000D1*
X-1675000D1*
Y445000D1*
Y444000D1*
Y443000D1*
Y442000D1*
Y441000D1*
Y440000D1*
Y439000D1*
Y438000D1*
Y437000D1*
Y436000D1*
Y435000D1*
Y434000D1*
Y433000D1*
Y432000D1*
Y431000D1*
Y430000D1*
Y429000D1*
Y428000D1*
X-1681000D1*
Y427000D1*
Y426000D1*
Y425000D1*
Y424000D1*
Y423000D1*
Y422000D1*
Y421000D1*
Y420000D1*
Y419000D1*
Y418000D1*
Y417000D1*
Y416000D1*
X-1675000D1*
Y415000D1*
Y414000D1*
Y413000D1*
Y412000D1*
Y411000D1*
Y410000D1*
X-1669000D1*
Y409000D1*
Y408000D1*
Y407000D1*
Y406000D1*
Y405000D1*
Y404000D1*
Y403000D1*
Y402000D1*
Y401000D1*
Y400000D1*
Y399000D1*
Y398000D1*
Y397000D1*
Y396000D1*
Y395000D1*
Y394000D1*
Y393000D1*
Y392000D1*
Y391000D1*
Y390000D1*
Y389000D1*
Y388000D1*
X-1675000D1*
Y387000D1*
Y386000D1*
Y385000D1*
Y384000D1*
Y383000D1*
Y382000D1*
Y381000D1*
Y380000D1*
Y379000D1*
Y378000D1*
Y377000D1*
Y376000D1*
Y375000D1*
Y374000D1*
Y373000D1*
Y372000D1*
Y371000D1*
X-1681000D1*
Y370000D1*
Y369000D1*
Y368000D1*
Y367000D1*
Y366000D1*
Y365000D1*
Y364000D1*
Y363000D1*
Y362000D1*
Y361000D1*
Y360000D1*
Y359000D1*
Y358000D1*
Y357000D1*
Y356000D1*
Y355000D1*
Y354000D1*
Y353000D1*
Y352000D1*
Y351000D1*
Y350000D1*
Y349000D1*
Y348000D1*
Y347000D1*
Y346000D1*
Y345000D1*
Y344000D1*
Y343000D1*
Y342000D1*
Y341000D1*
Y340000D1*
Y339000D1*
Y338000D1*
Y337000D1*
Y336000D1*
Y335000D1*
X-1687000D1*
Y334000D1*
Y333000D1*
Y332000D1*
Y331000D1*
Y330000D1*
Y329000D1*
Y328000D1*
Y327000D1*
Y326000D1*
Y325000D1*
Y324000D1*
Y323000D1*
Y322000D1*
Y321000D1*
Y320000D1*
Y319000D1*
Y318000D1*
X-1575000Y557000D2*
Y556000D1*
Y555000D1*
Y554000D1*
Y553000D1*
Y552000D1*
Y551000D1*
X-1581000D1*
Y550000D1*
Y549000D1*
Y548000D1*
Y547000D1*
Y546000D1*
Y545000D1*
Y544000D1*
Y543000D1*
Y542000D1*
Y541000D1*
Y540000D1*
Y539000D1*
Y538000D1*
Y537000D1*
Y536000D1*
Y535000D1*
Y534000D1*
Y533000D1*
Y532000D1*
Y531000D1*
Y530000D1*
Y529000D1*
Y528000D1*
Y527000D1*
Y526000D1*
Y525000D1*
Y524000D1*
Y523000D1*
Y522000D1*
Y521000D1*
Y520000D1*
Y519000D1*
Y518000D1*
Y517000D1*
Y516000D1*
Y515000D1*
Y514000D1*
Y513000D1*
Y512000D1*
Y511000D1*
Y510000D1*
Y509000D1*
Y508000D1*
Y507000D1*
Y506000D1*
Y505000D1*
Y504000D1*
X-1575000D1*
Y503000D1*
Y502000D1*
Y501000D1*
Y500000D1*
Y499000D1*
X-1523000Y557000D2*
Y556000D1*
Y555000D1*
Y554000D1*
Y553000D1*
Y552000D1*
Y551000D1*
X-1517000D1*
Y550000D1*
Y549000D1*
Y548000D1*
Y547000D1*
Y546000D1*
Y545000D1*
Y544000D1*
Y543000D1*
Y542000D1*
Y541000D1*
Y540000D1*
Y539000D1*
Y538000D1*
Y537000D1*
Y536000D1*
Y535000D1*
Y534000D1*
Y533000D1*
Y532000D1*
Y531000D1*
Y530000D1*
Y529000D1*
Y528000D1*
X-1563000Y540000D2*
Y539000D1*
Y538000D1*
Y537000D1*
Y536000D1*
Y535000D1*
Y534000D1*
Y533000D1*
Y532000D1*
Y531000D1*
Y530000D1*
Y529000D1*
Y528000D1*
Y527000D1*
Y526000D1*
Y525000D1*
Y524000D1*
Y523000D1*
Y522000D1*
Y521000D1*
Y520000D1*
Y519000D1*
Y518000D1*
Y517000D1*
Y516000D1*
X-1534000Y540000D2*
Y539000D1*
Y538000D1*
Y537000D1*
Y536000D1*
Y535000D1*
Y534000D1*
Y533000D1*
Y532000D1*
Y531000D1*
Y530000D1*
Y529000D1*
Y528000D1*
X-1498000Y539000D2*
Y538000D1*
Y537000D1*
Y536000D1*
Y535000D1*
Y534000D1*
Y533000D1*
X-1504000D1*
Y532000D1*
Y531000D1*
Y530000D1*
Y529000D1*
Y528000D1*
Y527000D1*
Y526000D1*
Y525000D1*
Y524000D1*
Y523000D1*
Y522000D1*
Y521000D1*
Y520000D1*
Y519000D1*
Y518000D1*
Y517000D1*
Y516000D1*
Y515000D1*
Y514000D1*
Y513000D1*
Y512000D1*
Y511000D1*
Y510000D1*
Y509000D1*
Y508000D1*
Y507000D1*
Y506000D1*
Y505000D1*
Y504000D1*
Y503000D1*
Y502000D1*
Y501000D1*
Y500000D1*
Y499000D1*
Y498000D1*
Y497000D1*
Y496000D1*
Y495000D1*
Y494000D1*
Y493000D1*
Y492000D1*
Y491000D1*
Y490000D1*
Y489000D1*
Y488000D1*
Y487000D1*
Y486000D1*
Y485000D1*
Y484000D1*
Y483000D1*
Y482000D1*
Y481000D1*
Y480000D1*
Y479000D1*
Y478000D1*
Y477000D1*
Y476000D1*
Y475000D1*
Y474000D1*
Y473000D1*
Y472000D1*
Y471000D1*
Y470000D1*
Y469000D1*
Y468000D1*
Y467000D1*
Y466000D1*
Y465000D1*
Y464000D1*
Y463000D1*
X-1498000D1*
Y462000D1*
Y461000D1*
Y460000D1*
Y459000D1*
Y458000D1*
X-1440000Y539000D2*
Y538000D1*
Y537000D1*
Y536000D1*
Y535000D1*
Y534000D1*
Y533000D1*
X-1434000D1*
Y532000D1*
Y531000D1*
Y530000D1*
Y529000D1*
Y528000D1*
Y527000D1*
Y526000D1*
Y525000D1*
Y524000D1*
Y523000D1*
Y522000D1*
Y521000D1*
Y520000D1*
Y519000D1*
Y518000D1*
Y517000D1*
Y516000D1*
Y515000D1*
Y514000D1*
Y513000D1*
Y512000D1*
Y511000D1*
Y510000D1*
Y509000D1*
Y508000D1*
Y507000D1*
Y506000D1*
Y505000D1*
Y504000D1*
Y503000D1*
Y502000D1*
Y501000D1*
Y500000D1*
Y499000D1*
Y498000D1*
Y497000D1*
Y496000D1*
Y495000D1*
Y494000D1*
Y493000D1*
Y492000D1*
Y491000D1*
Y490000D1*
Y489000D1*
Y488000D1*
Y487000D1*
Y486000D1*
Y485000D1*
Y484000D1*
Y483000D1*
Y482000D1*
Y481000D1*
Y480000D1*
Y479000D1*
Y478000D1*
Y477000D1*
Y476000D1*
Y475000D1*
Y474000D1*
Y473000D1*
Y472000D1*
Y471000D1*
Y470000D1*
Y469000D1*
Y468000D1*
Y467000D1*
Y466000D1*
Y465000D1*
Y464000D1*
Y463000D1*
X-1440000D1*
Y462000D1*
Y461000D1*
Y460000D1*
Y459000D1*
Y458000D1*
X-1423000Y539000D2*
Y538000D1*
Y537000D1*
Y536000D1*
Y535000D1*
Y534000D1*
Y533000D1*
Y532000D1*
Y531000D1*
Y530000D1*
Y529000D1*
Y528000D1*
Y527000D1*
Y526000D1*
Y525000D1*
Y524000D1*
Y523000D1*
Y522000D1*
Y521000D1*
Y520000D1*
Y519000D1*
Y518000D1*
Y517000D1*
Y516000D1*
Y515000D1*
Y514000D1*
Y513000D1*
Y512000D1*
Y511000D1*
Y510000D1*
Y509000D1*
Y508000D1*
Y507000D1*
Y506000D1*
Y505000D1*
Y504000D1*
Y503000D1*
Y502000D1*
Y501000D1*
Y500000D1*
Y499000D1*
Y498000D1*
Y497000D1*
Y496000D1*
Y495000D1*
Y494000D1*
Y493000D1*
Y492000D1*
Y491000D1*
Y490000D1*
Y489000D1*
Y488000D1*
Y487000D1*
Y486000D1*
Y485000D1*
Y484000D1*
Y483000D1*
Y482000D1*
Y481000D1*
Y480000D1*
Y479000D1*
Y478000D1*
Y477000D1*
Y476000D1*
Y475000D1*
Y474000D1*
Y473000D1*
Y472000D1*
Y471000D1*
Y470000D1*
Y469000D1*
Y468000D1*
Y467000D1*
Y466000D1*
Y465000D1*
Y464000D1*
Y463000D1*
Y462000D1*
Y461000D1*
Y460000D1*
Y459000D1*
Y458000D1*
X-1405000Y539000D2*
Y538000D1*
Y537000D1*
Y536000D1*
Y535000D1*
Y534000D1*
Y533000D1*
Y532000D1*
Y531000D1*
Y530000D1*
Y529000D1*
Y528000D1*
Y527000D1*
Y526000D1*
Y525000D1*
Y524000D1*
Y523000D1*
Y522000D1*
Y521000D1*
Y520000D1*
Y519000D1*
Y518000D1*
Y517000D1*
Y516000D1*
Y515000D1*
Y514000D1*
Y513000D1*
Y512000D1*
Y511000D1*
Y510000D1*
Y509000D1*
Y508000D1*
Y507000D1*
Y506000D1*
Y505000D1*
Y504000D1*
Y503000D1*
Y502000D1*
Y501000D1*
Y500000D1*
Y499000D1*
Y498000D1*
Y497000D1*
Y496000D1*
Y495000D1*
Y494000D1*
Y493000D1*
Y492000D1*
Y491000D1*
Y490000D1*
Y489000D1*
Y488000D1*
Y487000D1*
Y486000D1*
Y485000D1*
Y484000D1*
Y483000D1*
Y482000D1*
Y481000D1*
Y480000D1*
Y479000D1*
Y478000D1*
Y477000D1*
Y476000D1*
X-1358000Y539000D2*
Y538000D1*
Y537000D1*
Y536000D1*
Y535000D1*
Y534000D1*
Y533000D1*
Y532000D1*
Y531000D1*
Y530000D1*
Y529000D1*
Y528000D1*
Y527000D1*
Y526000D1*
Y525000D1*
Y524000D1*
Y523000D1*
Y522000D1*
Y521000D1*
Y520000D1*
Y519000D1*
Y518000D1*
Y517000D1*
Y516000D1*
Y515000D1*
Y514000D1*
Y513000D1*
Y512000D1*
Y511000D1*
Y510000D1*
Y509000D1*
Y508000D1*
Y507000D1*
Y506000D1*
Y505000D1*
Y504000D1*
Y503000D1*
Y502000D1*
Y501000D1*
Y500000D1*
Y499000D1*
Y498000D1*
Y497000D1*
Y496000D1*
Y495000D1*
Y494000D1*
Y493000D1*
Y492000D1*
Y491000D1*
Y490000D1*
Y489000D1*
Y488000D1*
Y487000D1*
Y486000D1*
Y485000D1*
Y484000D1*
Y483000D1*
Y482000D1*
Y481000D1*
Y480000D1*
Y479000D1*
Y478000D1*
Y477000D1*
Y476000D1*
Y475000D1*
Y474000D1*
Y473000D1*
Y472000D1*
Y471000D1*
Y470000D1*
Y469000D1*
Y468000D1*
Y467000D1*
Y466000D1*
Y465000D1*
Y464000D1*
Y463000D1*
Y462000D1*
Y461000D1*
Y460000D1*
Y459000D1*
Y458000D1*
X-1311000Y539000D2*
Y538000D1*
Y537000D1*
Y536000D1*
Y535000D1*
Y534000D1*
Y533000D1*
X-1300000D1*
Y532000D1*
Y531000D1*
Y530000D1*
Y529000D1*
Y528000D1*
Y527000D1*
Y526000D1*
Y525000D1*
Y524000D1*
Y523000D1*
Y522000D1*
X-1294000D1*
Y521000D1*
Y520000D1*
Y519000D1*
Y518000D1*
Y517000D1*
Y516000D1*
Y515000D1*
Y514000D1*
Y513000D1*
Y512000D1*
Y511000D1*
Y510000D1*
Y509000D1*
Y508000D1*
Y507000D1*
Y506000D1*
Y505000D1*
Y504000D1*
Y503000D1*
Y502000D1*
Y501000D1*
Y500000D1*
Y499000D1*
Y498000D1*
Y497000D1*
Y496000D1*
Y495000D1*
Y494000D1*
Y493000D1*
Y492000D1*
Y491000D1*
Y490000D1*
Y489000D1*
Y488000D1*
Y487000D1*
Y486000D1*
Y485000D1*
Y484000D1*
Y483000D1*
Y482000D1*
Y481000D1*
Y480000D1*
Y479000D1*
Y478000D1*
Y477000D1*
Y476000D1*
Y475000D1*
X-1300000D1*
Y474000D1*
Y473000D1*
Y472000D1*
Y471000D1*
Y470000D1*
Y469000D1*
Y468000D1*
Y467000D1*
Y466000D1*
Y465000D1*
Y464000D1*
Y463000D1*
X-1311000D1*
Y462000D1*
Y461000D1*
Y460000D1*
Y459000D1*
Y458000D1*
X-1276000Y539000D2*
Y538000D1*
Y537000D1*
Y536000D1*
Y535000D1*
Y534000D1*
Y533000D1*
Y532000D1*
Y531000D1*
Y530000D1*
Y529000D1*
Y528000D1*
Y527000D1*
Y526000D1*
Y525000D1*
Y524000D1*
Y523000D1*
Y522000D1*
Y521000D1*
Y520000D1*
Y519000D1*
Y518000D1*
Y517000D1*
Y516000D1*
Y515000D1*
Y514000D1*
Y513000D1*
Y512000D1*
Y511000D1*
Y510000D1*
Y509000D1*
Y508000D1*
Y507000D1*
Y506000D1*
Y505000D1*
Y504000D1*
Y503000D1*
Y502000D1*
Y501000D1*
Y500000D1*
Y499000D1*
Y498000D1*
Y497000D1*
Y496000D1*
Y495000D1*
Y494000D1*
Y493000D1*
Y492000D1*
Y491000D1*
Y490000D1*
Y489000D1*
Y488000D1*
Y487000D1*
Y486000D1*
Y485000D1*
Y484000D1*
Y483000D1*
Y482000D1*
Y481000D1*
Y480000D1*
Y479000D1*
Y478000D1*
Y477000D1*
Y476000D1*
Y475000D1*
Y474000D1*
Y473000D1*
Y472000D1*
Y471000D1*
Y470000D1*
Y469000D1*
Y468000D1*
Y467000D1*
Y466000D1*
Y465000D1*
Y464000D1*
Y463000D1*
Y462000D1*
Y461000D1*
Y460000D1*
Y459000D1*
Y458000D1*
X-1223000Y539000D2*
Y538000D1*
Y537000D1*
Y536000D1*
Y535000D1*
Y534000D1*
Y533000D1*
Y532000D1*
Y531000D1*
Y530000D1*
Y529000D1*
Y528000D1*
Y527000D1*
Y526000D1*
Y525000D1*
Y524000D1*
Y523000D1*
Y522000D1*
X-1206000Y539000D2*
Y538000D1*
Y537000D1*
Y536000D1*
Y535000D1*
Y534000D1*
Y533000D1*
Y532000D1*
Y531000D1*
Y530000D1*
Y529000D1*
Y528000D1*
Y527000D1*
Y526000D1*
Y525000D1*
Y524000D1*
Y523000D1*
Y522000D1*
Y521000D1*
Y520000D1*
Y519000D1*
Y518000D1*
Y517000D1*
Y516000D1*
Y515000D1*
Y514000D1*
Y513000D1*
Y512000D1*
Y511000D1*
Y510000D1*
Y509000D1*
Y508000D1*
Y507000D1*
Y506000D1*
Y505000D1*
Y504000D1*
Y503000D1*
Y502000D1*
Y501000D1*
Y500000D1*
Y499000D1*
Y498000D1*
Y497000D1*
Y496000D1*
Y495000D1*
Y494000D1*
Y493000D1*
Y492000D1*
Y491000D1*
Y490000D1*
Y489000D1*
Y488000D1*
Y487000D1*
Y486000D1*
Y485000D1*
Y484000D1*
Y483000D1*
Y482000D1*
Y481000D1*
Y480000D1*
Y479000D1*
Y478000D1*
Y477000D1*
Y476000D1*
Y475000D1*
Y474000D1*
Y473000D1*
Y472000D1*
Y471000D1*
Y470000D1*
Y469000D1*
Y468000D1*
Y467000D1*
Y466000D1*
Y465000D1*
Y464000D1*
Y463000D1*
Y462000D1*
Y461000D1*
Y460000D1*
Y459000D1*
Y458000D1*
X-1159000Y539000D2*
Y538000D1*
Y537000D1*
Y536000D1*
Y535000D1*
Y534000D1*
Y533000D1*
X-1153000D1*
Y532000D1*
Y531000D1*
Y530000D1*
Y529000D1*
Y528000D1*
Y527000D1*
Y526000D1*
Y525000D1*
Y524000D1*
Y523000D1*
Y522000D1*
Y521000D1*
Y520000D1*
Y519000D1*
Y518000D1*
Y517000D1*
Y516000D1*
Y515000D1*
Y514000D1*
Y513000D1*
Y512000D1*
Y511000D1*
Y510000D1*
Y509000D1*
Y508000D1*
Y507000D1*
Y506000D1*
Y505000D1*
Y504000D1*
Y503000D1*
Y502000D1*
Y501000D1*
Y500000D1*
Y499000D1*
Y498000D1*
Y497000D1*
Y496000D1*
Y495000D1*
Y494000D1*
Y493000D1*
Y492000D1*
X-1159000D1*
Y491000D1*
Y490000D1*
Y489000D1*
Y488000D1*
Y487000D1*
Y486000D1*
X-1165000D1*
Y485000D1*
Y484000D1*
Y483000D1*
Y482000D1*
Y481000D1*
X-1159000D1*
Y480000D1*
Y479000D1*
Y478000D1*
Y477000D1*
Y476000D1*
X-1153000D1*
Y475000D1*
Y474000D1*
Y473000D1*
Y472000D1*
Y471000D1*
Y470000D1*
X-1148000D1*
Y469000D1*
Y468000D1*
Y467000D1*
Y466000D1*
Y465000D1*
Y464000D1*
Y463000D1*
Y462000D1*
Y461000D1*
Y460000D1*
Y459000D1*
Y458000D1*
X-1135000Y539000D2*
Y538000D1*
Y537000D1*
Y536000D1*
Y535000D1*
Y534000D1*
Y533000D1*
Y532000D1*
Y531000D1*
Y530000D1*
Y529000D1*
Y528000D1*
Y527000D1*
Y526000D1*
Y525000D1*
Y524000D1*
Y523000D1*
Y522000D1*
Y521000D1*
Y520000D1*
Y519000D1*
Y518000D1*
Y517000D1*
Y516000D1*
Y515000D1*
Y514000D1*
Y513000D1*
Y512000D1*
Y511000D1*
Y510000D1*
Y509000D1*
Y508000D1*
Y507000D1*
Y506000D1*
Y505000D1*
Y504000D1*
Y503000D1*
Y502000D1*
Y501000D1*
Y500000D1*
Y499000D1*
Y498000D1*
Y497000D1*
Y496000D1*
Y495000D1*
Y494000D1*
Y493000D1*
Y492000D1*
Y491000D1*
Y490000D1*
Y489000D1*
Y488000D1*
Y487000D1*
Y486000D1*
Y485000D1*
Y484000D1*
Y483000D1*
Y482000D1*
Y481000D1*
Y480000D1*
Y479000D1*
Y478000D1*
Y477000D1*
Y476000D1*
Y475000D1*
Y474000D1*
Y473000D1*
Y472000D1*
Y471000D1*
Y470000D1*
Y469000D1*
Y468000D1*
Y467000D1*
Y466000D1*
Y465000D1*
Y464000D1*
Y463000D1*
Y462000D1*
Y461000D1*
Y460000D1*
Y459000D1*
Y458000D1*
X-1118000Y539000D2*
Y538000D1*
Y537000D1*
Y536000D1*
Y535000D1*
Y534000D1*
Y533000D1*
Y532000D1*
Y531000D1*
Y530000D1*
Y529000D1*
Y528000D1*
Y527000D1*
Y526000D1*
Y525000D1*
Y524000D1*
Y523000D1*
Y522000D1*
Y521000D1*
Y520000D1*
Y519000D1*
Y518000D1*
Y517000D1*
Y516000D1*
Y515000D1*
Y514000D1*
Y513000D1*
Y512000D1*
Y511000D1*
Y510000D1*
Y509000D1*
Y508000D1*
Y507000D1*
Y506000D1*
Y505000D1*
Y504000D1*
Y503000D1*
Y502000D1*
Y501000D1*
Y500000D1*
Y499000D1*
Y498000D1*
Y497000D1*
Y496000D1*
Y495000D1*
Y494000D1*
Y493000D1*
Y492000D1*
Y491000D1*
Y490000D1*
Y489000D1*
Y488000D1*
Y487000D1*
Y486000D1*
Y485000D1*
Y484000D1*
Y483000D1*
Y482000D1*
Y481000D1*
Y480000D1*
Y479000D1*
Y478000D1*
Y477000D1*
Y476000D1*
Y475000D1*
Y474000D1*
Y473000D1*
Y472000D1*
Y471000D1*
Y470000D1*
Y469000D1*
Y468000D1*
Y467000D1*
Y466000D1*
Y465000D1*
Y464000D1*
Y463000D1*
Y462000D1*
Y461000D1*
Y460000D1*
Y459000D1*
Y458000D1*
X-1100000Y539000D2*
Y538000D1*
Y537000D1*
Y536000D1*
Y535000D1*
Y534000D1*
Y533000D1*
Y532000D1*
Y531000D1*
Y530000D1*
Y529000D1*
Y528000D1*
Y527000D1*
Y526000D1*
Y525000D1*
Y524000D1*
Y523000D1*
Y522000D1*
Y521000D1*
Y520000D1*
Y519000D1*
Y518000D1*
Y517000D1*
Y516000D1*
Y515000D1*
Y514000D1*
Y513000D1*
Y512000D1*
Y511000D1*
Y510000D1*
Y509000D1*
Y508000D1*
Y507000D1*
Y506000D1*
Y505000D1*
Y504000D1*
Y503000D1*
Y502000D1*
Y501000D1*
Y500000D1*
Y499000D1*
Y498000D1*
Y497000D1*
Y496000D1*
Y495000D1*
Y494000D1*
Y493000D1*
Y492000D1*
Y491000D1*
Y490000D1*
Y489000D1*
Y488000D1*
Y487000D1*
Y486000D1*
Y485000D1*
Y484000D1*
Y483000D1*
Y482000D1*
Y481000D1*
Y480000D1*
Y479000D1*
Y478000D1*
Y477000D1*
Y476000D1*
Y475000D1*
Y474000D1*
Y473000D1*
Y472000D1*
Y471000D1*
Y470000D1*
Y469000D1*
Y468000D1*
Y467000D1*
Y466000D1*
Y465000D1*
Y464000D1*
Y463000D1*
Y462000D1*
Y461000D1*
Y460000D1*
Y459000D1*
Y458000D1*
X-1088000Y539000D2*
Y538000D1*
Y537000D1*
Y536000D1*
Y535000D1*
Y534000D1*
Y533000D1*
X-1083000D1*
Y532000D1*
Y531000D1*
Y530000D1*
Y529000D1*
Y528000D1*
Y527000D1*
Y526000D1*
Y525000D1*
Y524000D1*
Y523000D1*
Y522000D1*
X-1077000D1*
Y521000D1*
Y520000D1*
Y519000D1*
Y518000D1*
Y517000D1*
Y516000D1*
X-1071000D1*
Y515000D1*
Y514000D1*
Y513000D1*
Y512000D1*
Y511000D1*
Y510000D1*
Y509000D1*
Y508000D1*
Y507000D1*
Y506000D1*
Y505000D1*
X-1065000D1*
Y504000D1*
Y503000D1*
Y502000D1*
Y501000D1*
Y500000D1*
X-1059000Y539000D2*
Y538000D1*
Y537000D1*
Y536000D1*
Y535000D1*
Y534000D1*
Y533000D1*
Y532000D1*
Y531000D1*
Y530000D1*
Y529000D1*
Y528000D1*
Y527000D1*
Y526000D1*
Y525000D1*
Y524000D1*
Y523000D1*
Y522000D1*
Y521000D1*
Y520000D1*
Y519000D1*
Y518000D1*
Y517000D1*
Y516000D1*
Y515000D1*
Y514000D1*
Y513000D1*
Y512000D1*
Y511000D1*
Y510000D1*
Y509000D1*
Y508000D1*
Y507000D1*
Y506000D1*
Y505000D1*
Y504000D1*
Y503000D1*
Y502000D1*
Y501000D1*
Y500000D1*
X-1042000Y539000D2*
Y538000D1*
Y537000D1*
Y536000D1*
Y535000D1*
Y534000D1*
Y533000D1*
Y532000D1*
Y531000D1*
Y530000D1*
Y529000D1*
Y528000D1*
Y527000D1*
Y526000D1*
Y525000D1*
Y524000D1*
Y523000D1*
Y522000D1*
Y521000D1*
Y520000D1*
Y519000D1*
Y518000D1*
Y517000D1*
Y516000D1*
Y515000D1*
Y514000D1*
Y513000D1*
Y512000D1*
Y511000D1*
Y510000D1*
Y509000D1*
Y508000D1*
Y507000D1*
Y506000D1*
Y505000D1*
Y504000D1*
Y503000D1*
Y502000D1*
Y501000D1*
Y500000D1*
Y499000D1*
Y498000D1*
Y497000D1*
Y496000D1*
Y495000D1*
Y494000D1*
Y493000D1*
Y492000D1*
Y491000D1*
Y490000D1*
Y489000D1*
Y488000D1*
Y487000D1*
Y486000D1*
Y485000D1*
Y484000D1*
Y483000D1*
Y482000D1*
Y481000D1*
Y480000D1*
Y479000D1*
Y478000D1*
Y477000D1*
Y476000D1*
Y475000D1*
Y474000D1*
Y473000D1*
Y472000D1*
Y471000D1*
Y470000D1*
Y469000D1*
Y468000D1*
Y467000D1*
Y466000D1*
Y465000D1*
Y464000D1*
Y463000D1*
Y462000D1*
Y461000D1*
Y460000D1*
Y459000D1*
Y458000D1*
X-1018000Y539000D2*
Y538000D1*
Y537000D1*
Y536000D1*
Y535000D1*
Y534000D1*
Y533000D1*
X-1024000D1*
Y532000D1*
Y531000D1*
Y530000D1*
Y529000D1*
Y528000D1*
Y527000D1*
Y526000D1*
Y525000D1*
Y524000D1*
Y523000D1*
Y522000D1*
Y521000D1*
Y520000D1*
Y519000D1*
Y518000D1*
Y517000D1*
Y516000D1*
Y515000D1*
Y514000D1*
Y513000D1*
Y512000D1*
Y511000D1*
Y510000D1*
Y509000D1*
Y508000D1*
Y507000D1*
Y506000D1*
Y505000D1*
Y504000D1*
Y503000D1*
Y502000D1*
Y501000D1*
Y500000D1*
Y499000D1*
Y498000D1*
Y497000D1*
Y496000D1*
Y495000D1*
Y494000D1*
Y493000D1*
Y492000D1*
Y491000D1*
Y490000D1*
Y489000D1*
Y488000D1*
Y487000D1*
Y486000D1*
Y485000D1*
Y484000D1*
Y483000D1*
Y482000D1*
Y481000D1*
Y480000D1*
Y479000D1*
Y478000D1*
Y477000D1*
Y476000D1*
Y475000D1*
Y474000D1*
Y473000D1*
Y472000D1*
Y471000D1*
Y470000D1*
Y469000D1*
Y468000D1*
Y467000D1*
Y466000D1*
Y465000D1*
Y464000D1*
Y463000D1*
X-1018000D1*
Y462000D1*
Y461000D1*
Y460000D1*
Y459000D1*
Y458000D1*
X-965000Y539000D2*
Y538000D1*
Y537000D1*
Y536000D1*
Y535000D1*
Y534000D1*
Y533000D1*
X-960000D1*
Y532000D1*
Y531000D1*
Y530000D1*
Y529000D1*
Y528000D1*
Y527000D1*
Y526000D1*
Y525000D1*
Y524000D1*
Y523000D1*
Y522000D1*
Y521000D1*
Y520000D1*
Y519000D1*
Y518000D1*
Y517000D1*
Y516000D1*
Y515000D1*
Y514000D1*
Y513000D1*
Y512000D1*
Y511000D1*
Y510000D1*
X-1487000Y522000D2*
Y521000D1*
Y520000D1*
Y519000D1*
Y518000D1*
Y517000D1*
Y516000D1*
Y515000D1*
Y514000D1*
Y513000D1*
Y512000D1*
Y511000D1*
Y510000D1*
Y509000D1*
Y508000D1*
Y507000D1*
Y506000D1*
Y505000D1*
Y504000D1*
Y503000D1*
Y502000D1*
Y501000D1*
Y500000D1*
Y499000D1*
Y498000D1*
Y497000D1*
Y496000D1*
Y495000D1*
Y494000D1*
Y493000D1*
Y492000D1*
Y491000D1*
Y490000D1*
Y489000D1*
Y488000D1*
Y487000D1*
Y486000D1*
Y485000D1*
Y484000D1*
Y483000D1*
Y482000D1*
Y481000D1*
Y480000D1*
Y479000D1*
Y478000D1*
Y477000D1*
Y476000D1*
X-1452000Y522000D2*
Y521000D1*
Y520000D1*
Y519000D1*
Y518000D1*
Y517000D1*
Y516000D1*
Y515000D1*
Y514000D1*
Y513000D1*
Y512000D1*
Y511000D1*
Y510000D1*
Y509000D1*
Y508000D1*
Y507000D1*
Y506000D1*
Y505000D1*
Y504000D1*
Y503000D1*
Y502000D1*
Y501000D1*
Y500000D1*
Y499000D1*
Y498000D1*
Y497000D1*
Y496000D1*
Y495000D1*
Y494000D1*
Y493000D1*
Y492000D1*
Y491000D1*
Y490000D1*
Y489000D1*
Y488000D1*
Y487000D1*
Y486000D1*
Y485000D1*
Y484000D1*
Y483000D1*
Y482000D1*
Y481000D1*
Y480000D1*
Y479000D1*
Y478000D1*
Y477000D1*
Y476000D1*
X-1340000Y522000D2*
Y521000D1*
Y520000D1*
Y519000D1*
Y518000D1*
Y517000D1*
Y516000D1*
Y515000D1*
Y514000D1*
Y513000D1*
Y512000D1*
Y511000D1*
Y510000D1*
Y509000D1*
Y508000D1*
Y507000D1*
Y506000D1*
Y505000D1*
Y504000D1*
Y503000D1*
Y502000D1*
Y501000D1*
Y500000D1*
Y499000D1*
Y498000D1*
Y497000D1*
Y496000D1*
Y495000D1*
Y494000D1*
Y493000D1*
Y492000D1*
Y491000D1*
Y490000D1*
Y489000D1*
Y488000D1*
Y487000D1*
Y486000D1*
Y485000D1*
Y484000D1*
Y483000D1*
Y482000D1*
Y481000D1*
Y480000D1*
Y479000D1*
Y478000D1*
Y477000D1*
Y476000D1*
X-1323000Y522000D2*
Y521000D1*
Y520000D1*
Y519000D1*
Y518000D1*
Y517000D1*
Y516000D1*
Y515000D1*
X-1317000D1*
Y514000D1*
Y513000D1*
Y512000D1*
Y511000D1*
Y510000D1*
Y509000D1*
X-1311000D1*
Y508000D1*
Y507000D1*
Y506000D1*
Y505000D1*
Y504000D1*
Y503000D1*
Y502000D1*
Y501000D1*
Y500000D1*
Y499000D1*
Y498000D1*
Y497000D1*
Y496000D1*
Y495000D1*
Y494000D1*
Y493000D1*
Y492000D1*
Y491000D1*
Y490000D1*
Y489000D1*
Y488000D1*
Y487000D1*
Y486000D1*
Y485000D1*
Y484000D1*
Y483000D1*
Y482000D1*
Y481000D1*
X-1317000D1*
Y480000D1*
Y479000D1*
Y478000D1*
Y477000D1*
Y476000D1*
X-1259000Y522000D2*
Y521000D1*
Y520000D1*
Y519000D1*
Y518000D1*
Y517000D1*
Y516000D1*
Y515000D1*
Y514000D1*
Y513000D1*
Y512000D1*
Y511000D1*
Y510000D1*
X-1188000Y522000D2*
Y521000D1*
Y520000D1*
Y519000D1*
Y518000D1*
Y517000D1*
Y516000D1*
Y515000D1*
Y514000D1*
Y513000D1*
Y512000D1*
Y511000D1*
Y510000D1*
Y509000D1*
Y508000D1*
Y507000D1*
Y506000D1*
Y505000D1*
X-1171000Y522000D2*
Y521000D1*
Y520000D1*
Y519000D1*
Y518000D1*
Y517000D1*
Y516000D1*
Y515000D1*
Y514000D1*
Y513000D1*
Y512000D1*
Y511000D1*
Y510000D1*
Y509000D1*
Y508000D1*
Y507000D1*
Y506000D1*
Y505000D1*
X-1007000Y522000D2*
Y521000D1*
Y520000D1*
Y519000D1*
Y518000D1*
Y517000D1*
Y516000D1*
Y515000D1*
Y514000D1*
Y513000D1*
Y512000D1*
Y511000D1*
Y510000D1*
Y509000D1*
Y508000D1*
Y507000D1*
Y506000D1*
Y505000D1*
Y504000D1*
Y503000D1*
Y502000D1*
Y501000D1*
Y500000D1*
Y499000D1*
Y498000D1*
Y497000D1*
Y496000D1*
Y495000D1*
Y494000D1*
Y493000D1*
Y492000D1*
Y491000D1*
Y490000D1*
Y489000D1*
Y488000D1*
Y487000D1*
Y486000D1*
Y485000D1*
Y484000D1*
Y483000D1*
Y482000D1*
Y481000D1*
Y480000D1*
Y479000D1*
Y478000D1*
Y477000D1*
Y476000D1*
X-977000Y522000D2*
Y521000D1*
Y520000D1*
Y519000D1*
Y518000D1*
Y517000D1*
Y516000D1*
Y515000D1*
Y514000D1*
Y513000D1*
Y512000D1*
Y511000D1*
Y510000D1*
X-1523000Y516000D2*
Y515000D1*
Y514000D1*
Y513000D1*
Y512000D1*
Y511000D1*
Y510000D1*
X-1517000D1*
Y509000D1*
Y508000D1*
Y507000D1*
Y506000D1*
Y505000D1*
Y504000D1*
Y503000D1*
Y502000D1*
Y501000D1*
Y500000D1*
Y499000D1*
Y498000D1*
Y497000D1*
Y496000D1*
Y495000D1*
Y494000D1*
Y493000D1*
Y492000D1*
Y491000D1*
Y490000D1*
Y489000D1*
Y488000D1*
Y487000D1*
Y486000D1*
Y485000D1*
Y484000D1*
Y483000D1*
Y482000D1*
Y481000D1*
Y480000D1*
Y479000D1*
Y478000D1*
Y477000D1*
Y476000D1*
Y475000D1*
Y474000D1*
Y473000D1*
Y472000D1*
Y471000D1*
Y470000D1*
Y469000D1*
Y468000D1*
Y467000D1*
Y466000D1*
Y465000D1*
Y464000D1*
Y463000D1*
X-1523000D1*
Y462000D1*
Y461000D1*
Y460000D1*
Y459000D1*
Y458000D1*
X-1241000Y510000D2*
Y509000D1*
Y508000D1*
Y507000D1*
Y506000D1*
Y505000D1*
Y504000D1*
Y503000D1*
Y502000D1*
Y501000D1*
Y500000D1*
Y499000D1*
Y498000D1*
Y497000D1*
Y496000D1*
Y495000D1*
Y494000D1*
Y493000D1*
X-994000Y505000D2*
Y504000D1*
Y503000D1*
Y502000D1*
Y501000D1*
Y500000D1*
Y499000D1*
Y498000D1*
Y497000D1*
Y496000D1*
Y495000D1*
Y494000D1*
Y493000D1*
Y492000D1*
Y491000D1*
Y490000D1*
Y489000D1*
Y488000D1*
Y487000D1*
X-960000Y505000D2*
Y504000D1*
Y503000D1*
Y502000D1*
Y501000D1*
Y500000D1*
Y499000D1*
Y498000D1*
Y497000D1*
Y496000D1*
Y495000D1*
Y494000D1*
Y493000D1*
Y492000D1*
Y491000D1*
Y490000D1*
Y489000D1*
Y488000D1*
Y487000D1*
Y486000D1*
Y485000D1*
Y484000D1*
Y483000D1*
Y482000D1*
Y481000D1*
Y480000D1*
Y479000D1*
Y478000D1*
Y477000D1*
Y476000D1*
Y475000D1*
Y474000D1*
Y473000D1*
Y472000D1*
Y471000D1*
Y470000D1*
Y469000D1*
Y468000D1*
Y467000D1*
Y466000D1*
Y465000D1*
Y464000D1*
Y463000D1*
X-965000D1*
Y462000D1*
Y461000D1*
Y460000D1*
Y459000D1*
Y458000D1*
X-1534000Y499000D2*
Y498000D1*
Y497000D1*
Y496000D1*
Y495000D1*
Y494000D1*
Y493000D1*
Y492000D1*
Y491000D1*
Y490000D1*
Y489000D1*
Y488000D1*
Y487000D1*
Y486000D1*
Y485000D1*
Y484000D1*
Y483000D1*
Y482000D1*
Y481000D1*
Y480000D1*
Y479000D1*
Y478000D1*
Y477000D1*
Y476000D1*
X-1083000Y499000D2*
Y498000D1*
Y497000D1*
Y496000D1*
Y495000D1*
Y494000D1*
Y493000D1*
Y492000D1*
Y491000D1*
Y490000D1*
Y489000D1*
Y488000D1*
Y487000D1*
Y486000D1*
Y485000D1*
Y484000D1*
Y483000D1*
Y482000D1*
Y481000D1*
Y480000D1*
Y479000D1*
Y478000D1*
Y477000D1*
Y476000D1*
Y475000D1*
Y474000D1*
Y473000D1*
Y472000D1*
Y471000D1*
Y470000D1*
Y469000D1*
Y468000D1*
Y467000D1*
Y466000D1*
Y465000D1*
Y464000D1*
Y463000D1*
Y462000D1*
Y461000D1*
Y460000D1*
Y459000D1*
Y458000D1*
X-1077000Y499000D2*
Y498000D1*
Y497000D1*
Y496000D1*
Y495000D1*
Y494000D1*
Y493000D1*
Y492000D1*
X-1071000D1*
Y491000D1*
Y490000D1*
Y489000D1*
Y488000D1*
Y487000D1*
Y486000D1*
Y485000D1*
Y484000D1*
Y483000D1*
Y482000D1*
Y481000D1*
Y480000D1*
X-1065000D1*
Y479000D1*
Y478000D1*
Y477000D1*
Y476000D1*
Y475000D1*
X-1059000D1*
Y474000D1*
Y473000D1*
Y472000D1*
Y471000D1*
Y470000D1*
Y469000D1*
Y468000D1*
Y467000D1*
Y466000D1*
Y465000D1*
Y464000D1*
Y463000D1*
X-1054000D1*
Y462000D1*
Y461000D1*
Y460000D1*
Y459000D1*
Y458000D1*
X-1581000Y493000D2*
Y492000D1*
Y491000D1*
Y490000D1*
Y489000D1*
Y488000D1*
Y487000D1*
X-1587000D1*
Y486000D1*
Y485000D1*
Y484000D1*
Y483000D1*
Y482000D1*
Y481000D1*
Y480000D1*
Y479000D1*
Y478000D1*
Y477000D1*
Y476000D1*
Y475000D1*
Y474000D1*
Y473000D1*
Y472000D1*
Y471000D1*
Y470000D1*
Y469000D1*
Y468000D1*
Y467000D1*
Y466000D1*
Y465000D1*
Y464000D1*
Y463000D1*
X-1581000D1*
Y462000D1*
Y461000D1*
Y460000D1*
Y459000D1*
Y458000D1*
X-1569000Y493000D2*
Y492000D1*
Y491000D1*
Y490000D1*
Y489000D1*
Y488000D1*
Y487000D1*
Y486000D1*
Y485000D1*
Y484000D1*
Y483000D1*
Y482000D1*
Y481000D1*
Y480000D1*
Y479000D1*
Y478000D1*
Y477000D1*
Y476000D1*
X-1259000Y493000D2*
Y492000D1*
Y491000D1*
Y490000D1*
Y489000D1*
Y488000D1*
Y487000D1*
Y486000D1*
Y485000D1*
Y484000D1*
Y483000D1*
Y482000D1*
Y481000D1*
Y480000D1*
Y479000D1*
Y478000D1*
Y477000D1*
Y476000D1*
X-1188000Y487000D2*
Y486000D1*
Y485000D1*
Y484000D1*
Y483000D1*
Y482000D1*
Y481000D1*
Y480000D1*
Y479000D1*
Y478000D1*
Y477000D1*
Y476000D1*
Y475000D1*
Y474000D1*
Y473000D1*
Y472000D1*
Y471000D1*
Y470000D1*
Y469000D1*
Y468000D1*
Y467000D1*
Y466000D1*
Y465000D1*
Y464000D1*
Y463000D1*
Y462000D1*
Y461000D1*
Y460000D1*
Y459000D1*
Y458000D1*
X-1182000Y487000D2*
Y486000D1*
Y485000D1*
Y484000D1*
Y483000D1*
Y482000D1*
Y481000D1*
Y480000D1*
X-1177000D1*
Y479000D1*
Y478000D1*
Y477000D1*
Y476000D1*
Y475000D1*
Y474000D1*
Y473000D1*
Y472000D1*
Y471000D1*
Y470000D1*
Y469000D1*
X-1171000D1*
Y468000D1*
Y467000D1*
Y466000D1*
Y465000D1*
Y464000D1*
Y463000D1*
X-1165000D1*
Y462000D1*
Y461000D1*
Y460000D1*
Y459000D1*
Y458000D1*
X-977000Y487000D2*
Y486000D1*
Y485000D1*
Y484000D1*
Y483000D1*
Y482000D1*
Y481000D1*
Y480000D1*
Y479000D1*
Y478000D1*
Y477000D1*
Y476000D1*
X-1370000D2*
Y475000D1*
Y474000D1*
Y473000D1*
Y472000D1*
Y471000D1*
Y470000D1*
Y469000D1*
Y468000D1*
Y467000D1*
Y466000D1*
Y465000D1*
Y464000D1*
Y463000D1*
Y462000D1*
Y461000D1*
Y460000D1*
Y459000D1*
Y458000D1*
X-1223000Y476000D2*
Y475000D1*
Y474000D1*
Y473000D1*
Y472000D1*
Y471000D1*
Y470000D1*
Y469000D1*
Y468000D1*
Y467000D1*
Y466000D1*
Y465000D1*
Y464000D1*
Y463000D1*
Y462000D1*
Y461000D1*
Y460000D1*
Y459000D1*
Y458000D1*
X-1546000D2*
Y457000D1*
Y456000D1*
Y455000D1*
Y454000D1*
Y453000D1*
Y452000D1*
X-1552000D1*
Y451000D1*
Y450000D1*
Y449000D1*
Y448000D1*
Y447000D1*
Y446000D1*
Y445000D1*
Y444000D1*
Y443000D1*
Y442000D1*
Y441000D1*
Y440000D1*
Y439000D1*
Y438000D1*
Y437000D1*
Y436000D1*
Y435000D1*
Y434000D1*
Y433000D1*
Y432000D1*
Y431000D1*
Y430000D1*
Y429000D1*
Y428000D1*
Y427000D1*
Y426000D1*
Y425000D1*
Y424000D1*
Y423000D1*
Y422000D1*
Y421000D1*
Y420000D1*
Y419000D1*
Y418000D1*
Y417000D1*
Y416000D1*
Y415000D1*
Y414000D1*
Y413000D1*
Y412000D1*
Y411000D1*
Y410000D1*
Y409000D1*
Y408000D1*
Y407000D1*
Y406000D1*
Y405000D1*
Y404000D1*
Y403000D1*
Y402000D1*
Y401000D1*
Y400000D1*
Y399000D1*
Y398000D1*
X-1546000D1*
Y397000D1*
Y396000D1*
Y395000D1*
Y394000D1*
X-1481000Y458000D2*
Y457000D1*
Y456000D1*
Y455000D1*
Y454000D1*
Y453000D1*
Y452000D1*
Y451000D1*
Y450000D1*
Y449000D1*
Y448000D1*
Y447000D1*
Y446000D1*
Y445000D1*
Y444000D1*
Y443000D1*
Y442000D1*
Y441000D1*
Y440000D1*
Y439000D1*
Y438000D1*
Y437000D1*
Y436000D1*
Y435000D1*
Y434000D1*
Y433000D1*
Y432000D1*
Y431000D1*
Y430000D1*
Y429000D1*
X-1534000Y441000D2*
Y440000D1*
Y439000D1*
Y438000D1*
Y437000D1*
Y436000D1*
Y435000D1*
Y434000D1*
Y433000D1*
Y432000D1*
Y431000D1*
Y430000D1*
Y429000D1*
Y428000D1*
Y427000D1*
Y426000D1*
Y425000D1*
Y424000D1*
Y423000D1*
Y422000D1*
Y421000D1*
Y420000D1*
Y419000D1*
Y418000D1*
Y417000D1*
X-1498000Y441000D2*
Y440000D1*
Y439000D1*
Y438000D1*
Y437000D1*
Y436000D1*
Y435000D1*
Y434000D1*
Y433000D1*
Y432000D1*
Y431000D1*
Y430000D1*
Y429000D1*
X-1464000Y440000D2*
Y439000D1*
Y438000D1*
Y437000D1*
Y436000D1*
Y435000D1*
Y434000D1*
Y433000D1*
Y432000D1*
Y431000D1*
Y430000D1*
Y429000D1*
Y428000D1*
Y427000D1*
Y426000D1*
Y425000D1*
Y424000D1*
Y423000D1*
X-1394000Y440000D2*
Y439000D1*
Y438000D1*
Y437000D1*
Y436000D1*
Y435000D1*
Y434000D1*
Y433000D1*
Y432000D1*
Y431000D1*
Y430000D1*
Y429000D1*
Y428000D1*
Y427000D1*
Y426000D1*
Y425000D1*
Y424000D1*
Y423000D1*
X-1352000Y440000D2*
Y439000D1*
Y438000D1*
Y437000D1*
Y436000D1*
Y435000D1*
Y434000D1*
Y433000D1*
Y432000D1*
Y431000D1*
Y430000D1*
Y429000D1*
Y428000D1*
X-1358000D1*
Y427000D1*
Y426000D1*
Y425000D1*
Y424000D1*
Y423000D1*
Y422000D1*
Y421000D1*
Y420000D1*
Y419000D1*
Y418000D1*
Y417000D1*
Y416000D1*
Y415000D1*
Y414000D1*
Y413000D1*
Y412000D1*
Y411000D1*
X-1364000D1*
Y410000D1*
Y409000D1*
Y408000D1*
Y407000D1*
Y406000D1*
Y405000D1*
Y404000D1*
Y403000D1*
Y402000D1*
Y401000D1*
Y400000D1*
Y399000D1*
Y398000D1*
Y397000D1*
Y396000D1*
Y395000D1*
Y394000D1*
X-1370000D1*
Y393000D1*
Y392000D1*
Y391000D1*
Y390000D1*
Y389000D1*
Y388000D1*
Y387000D1*
Y386000D1*
Y385000D1*
Y384000D1*
Y383000D1*
Y382000D1*
Y381000D1*
Y380000D1*
Y379000D1*
Y378000D1*
Y377000D1*
Y376000D1*
X-1375000D1*
Y375000D1*
Y374000D1*
Y373000D1*
Y372000D1*
Y371000D1*
Y370000D1*
Y369000D1*
Y368000D1*
Y367000D1*
Y366000D1*
Y365000D1*
X-1381000D1*
Y364000D1*
Y363000D1*
Y362000D1*
Y361000D1*
Y360000D1*
Y359000D1*
Y358000D1*
Y357000D1*
Y356000D1*
Y355000D1*
Y354000D1*
Y353000D1*
Y352000D1*
Y351000D1*
Y350000D1*
Y349000D1*
Y348000D1*
Y347000D1*
Y346000D1*
Y345000D1*
Y344000D1*
Y343000D1*
Y342000D1*
X-1335000Y440000D2*
Y439000D1*
Y438000D1*
Y437000D1*
Y436000D1*
Y435000D1*
Y434000D1*
Y433000D1*
Y432000D1*
Y431000D1*
Y430000D1*
Y429000D1*
Y428000D1*
X-1329000D1*
Y427000D1*
Y426000D1*
Y425000D1*
Y424000D1*
Y423000D1*
Y422000D1*
Y421000D1*
Y420000D1*
Y419000D1*
Y418000D1*
Y417000D1*
Y416000D1*
Y415000D1*
Y414000D1*
Y413000D1*
Y412000D1*
Y411000D1*
X-1323000D1*
Y410000D1*
Y409000D1*
Y408000D1*
Y407000D1*
Y406000D1*
Y405000D1*
Y404000D1*
Y403000D1*
Y402000D1*
Y401000D1*
Y400000D1*
Y399000D1*
X-1317000D1*
Y398000D1*
Y397000D1*
Y396000D1*
Y395000D1*
Y394000D1*
Y393000D1*
Y392000D1*
Y391000D1*
Y390000D1*
Y389000D1*
Y388000D1*
Y387000D1*
Y386000D1*
Y385000D1*
Y384000D1*
Y383000D1*
Y382000D1*
X-1311000D1*
Y381000D1*
Y380000D1*
Y379000D1*
Y378000D1*
Y377000D1*
Y376000D1*
Y375000D1*
Y374000D1*
Y373000D1*
Y372000D1*
Y371000D1*
Y370000D1*
Y369000D1*
Y368000D1*
Y367000D1*
Y366000D1*
Y365000D1*
X-1306000D1*
Y364000D1*
Y363000D1*
Y362000D1*
Y361000D1*
Y360000D1*
Y359000D1*
Y358000D1*
Y357000D1*
Y356000D1*
Y355000D1*
Y354000D1*
Y353000D1*
X-1300000D1*
Y352000D1*
Y351000D1*
Y350000D1*
Y349000D1*
Y348000D1*
Y347000D1*
Y346000D1*
Y345000D1*
Y344000D1*
Y343000D1*
Y342000D1*
X-1294000Y440000D2*
Y439000D1*
Y438000D1*
Y437000D1*
Y436000D1*
Y435000D1*
Y434000D1*
Y433000D1*
Y432000D1*
Y431000D1*
Y430000D1*
Y429000D1*
Y428000D1*
Y427000D1*
Y426000D1*
Y425000D1*
Y424000D1*
Y423000D1*
X-1223000Y440000D2*
Y439000D1*
Y438000D1*
Y437000D1*
Y436000D1*
Y435000D1*
Y434000D1*
Y433000D1*
Y432000D1*
Y431000D1*
Y430000D1*
Y429000D1*
Y428000D1*
Y427000D1*
Y426000D1*
Y425000D1*
Y424000D1*
Y423000D1*
X-1206000Y440000D2*
Y439000D1*
Y438000D1*
Y437000D1*
Y436000D1*
Y435000D1*
Y434000D1*
Y433000D1*
Y432000D1*
Y431000D1*
Y430000D1*
Y429000D1*
Y428000D1*
Y427000D1*
Y426000D1*
Y425000D1*
Y424000D1*
Y423000D1*
Y422000D1*
Y421000D1*
Y420000D1*
Y419000D1*
Y418000D1*
Y417000D1*
Y416000D1*
Y415000D1*
Y414000D1*
Y413000D1*
Y412000D1*
Y411000D1*
Y410000D1*
Y409000D1*
Y408000D1*
Y407000D1*
Y406000D1*
Y405000D1*
Y404000D1*
Y403000D1*
Y402000D1*
Y401000D1*
Y400000D1*
Y399000D1*
Y398000D1*
Y397000D1*
Y396000D1*
Y395000D1*
Y394000D1*
Y393000D1*
Y392000D1*
Y391000D1*
Y390000D1*
Y389000D1*
Y388000D1*
Y387000D1*
Y386000D1*
Y385000D1*
Y384000D1*
Y383000D1*
Y382000D1*
Y381000D1*
Y380000D1*
Y379000D1*
Y378000D1*
Y377000D1*
Y376000D1*
Y375000D1*
Y374000D1*
Y373000D1*
Y372000D1*
Y371000D1*
Y370000D1*
Y369000D1*
Y368000D1*
Y367000D1*
Y366000D1*
Y365000D1*
Y364000D1*
Y363000D1*
Y362000D1*
Y361000D1*
Y360000D1*
Y359000D1*
Y358000D1*
Y357000D1*
Y356000D1*
Y355000D1*
Y354000D1*
Y353000D1*
Y352000D1*
Y351000D1*
Y350000D1*
Y349000D1*
Y348000D1*
Y347000D1*
Y346000D1*
Y345000D1*
Y344000D1*
Y343000D1*
Y342000D1*
X-1188000Y440000D2*
Y439000D1*
Y438000D1*
Y437000D1*
Y436000D1*
Y435000D1*
Y434000D1*
Y433000D1*
Y432000D1*
Y431000D1*
Y430000D1*
Y429000D1*
Y428000D1*
Y427000D1*
Y426000D1*
Y425000D1*
Y424000D1*
Y423000D1*
Y422000D1*
Y421000D1*
Y420000D1*
Y419000D1*
Y418000D1*
Y417000D1*
Y416000D1*
Y415000D1*
Y414000D1*
Y413000D1*
Y412000D1*
Y411000D1*
Y410000D1*
Y409000D1*
Y408000D1*
Y407000D1*
Y406000D1*
Y405000D1*
Y404000D1*
Y403000D1*
Y402000D1*
Y401000D1*
Y400000D1*
Y399000D1*
Y398000D1*
Y397000D1*
Y396000D1*
Y395000D1*
Y394000D1*
Y393000D1*
Y392000D1*
Y391000D1*
Y390000D1*
Y389000D1*
Y388000D1*
Y387000D1*
Y386000D1*
Y385000D1*
Y384000D1*
Y383000D1*
Y382000D1*
Y381000D1*
Y380000D1*
Y379000D1*
Y378000D1*
Y377000D1*
Y376000D1*
Y375000D1*
Y374000D1*
Y373000D1*
Y372000D1*
Y371000D1*
Y370000D1*
Y369000D1*
Y368000D1*
Y367000D1*
Y366000D1*
Y365000D1*
Y364000D1*
Y363000D1*
Y362000D1*
Y361000D1*
Y360000D1*
Y359000D1*
Y358000D1*
Y357000D1*
Y356000D1*
Y355000D1*
Y354000D1*
Y353000D1*
Y352000D1*
Y351000D1*
Y350000D1*
Y349000D1*
Y348000D1*
Y347000D1*
Y346000D1*
Y345000D1*
Y344000D1*
Y343000D1*
Y342000D1*
X-1159000Y440000D2*
Y439000D1*
Y438000D1*
Y437000D1*
Y436000D1*
Y435000D1*
Y434000D1*
X-1165000D1*
Y433000D1*
Y432000D1*
Y431000D1*
Y430000D1*
Y429000D1*
Y428000D1*
Y427000D1*
Y426000D1*
Y425000D1*
Y424000D1*
Y423000D1*
Y422000D1*
Y421000D1*
Y420000D1*
Y419000D1*
Y418000D1*
Y417000D1*
Y416000D1*
Y415000D1*
Y414000D1*
Y413000D1*
Y412000D1*
Y411000D1*
Y410000D1*
Y409000D1*
Y408000D1*
Y407000D1*
Y406000D1*
Y405000D1*
Y404000D1*
Y403000D1*
Y402000D1*
Y401000D1*
Y400000D1*
Y399000D1*
Y398000D1*
Y397000D1*
Y396000D1*
Y395000D1*
Y394000D1*
Y393000D1*
Y392000D1*
Y391000D1*
Y390000D1*
Y389000D1*
Y388000D1*
Y387000D1*
Y386000D1*
Y385000D1*
Y384000D1*
Y383000D1*
Y382000D1*
Y381000D1*
Y380000D1*
Y379000D1*
Y378000D1*
Y377000D1*
Y376000D1*
Y375000D1*
Y374000D1*
Y373000D1*
Y372000D1*
Y371000D1*
Y370000D1*
Y369000D1*
Y368000D1*
Y367000D1*
Y366000D1*
Y365000D1*
Y364000D1*
Y363000D1*
Y362000D1*
Y361000D1*
Y360000D1*
Y359000D1*
Y358000D1*
Y357000D1*
Y356000D1*
Y355000D1*
Y354000D1*
Y353000D1*
Y352000D1*
Y351000D1*
Y350000D1*
Y349000D1*
Y348000D1*
Y347000D1*
Y346000D1*
X-1159000D1*
Y345000D1*
Y344000D1*
Y343000D1*
Y342000D1*
X-1094000Y440000D2*
Y439000D1*
Y438000D1*
Y437000D1*
Y436000D1*
Y435000D1*
Y434000D1*
X-1088000D1*
Y433000D1*
Y432000D1*
Y431000D1*
Y430000D1*
Y429000D1*
Y428000D1*
Y427000D1*
Y426000D1*
Y425000D1*
Y424000D1*
Y423000D1*
Y422000D1*
Y421000D1*
Y420000D1*
Y419000D1*
Y418000D1*
Y417000D1*
Y416000D1*
Y415000D1*
Y414000D1*
Y413000D1*
Y412000D1*
Y411000D1*
Y410000D1*
Y409000D1*
Y408000D1*
Y407000D1*
Y406000D1*
Y405000D1*
Y404000D1*
Y403000D1*
Y402000D1*
Y401000D1*
Y400000D1*
Y399000D1*
Y398000D1*
Y397000D1*
Y396000D1*
Y395000D1*
Y394000D1*
Y393000D1*
Y392000D1*
Y391000D1*
Y390000D1*
Y389000D1*
Y388000D1*
Y387000D1*
Y386000D1*
Y385000D1*
Y384000D1*
Y383000D1*
Y382000D1*
Y381000D1*
Y380000D1*
Y379000D1*
Y378000D1*
Y377000D1*
Y376000D1*
Y375000D1*
Y374000D1*
Y373000D1*
Y372000D1*
Y371000D1*
Y370000D1*
Y369000D1*
Y368000D1*
Y367000D1*
Y366000D1*
Y365000D1*
Y364000D1*
Y363000D1*
Y362000D1*
Y361000D1*
Y360000D1*
Y359000D1*
Y358000D1*
Y357000D1*
Y356000D1*
Y355000D1*
Y354000D1*
Y353000D1*
Y352000D1*
Y351000D1*
Y350000D1*
Y349000D1*
Y348000D1*
Y347000D1*
Y346000D1*
X-1094000D1*
Y345000D1*
Y344000D1*
Y343000D1*
Y342000D1*
X-1065000Y440000D2*
Y439000D1*
Y438000D1*
Y437000D1*
Y436000D1*
Y435000D1*
Y434000D1*
Y433000D1*
Y432000D1*
Y431000D1*
Y430000D1*
Y429000D1*
Y428000D1*
Y427000D1*
Y426000D1*
Y425000D1*
Y424000D1*
Y423000D1*
Y422000D1*
Y421000D1*
Y420000D1*
Y419000D1*
Y418000D1*
Y417000D1*
Y416000D1*
Y415000D1*
Y414000D1*
Y413000D1*
Y412000D1*
Y411000D1*
Y410000D1*
Y409000D1*
Y408000D1*
Y407000D1*
Y406000D1*
Y405000D1*
Y404000D1*
Y403000D1*
Y402000D1*
Y401000D1*
Y400000D1*
Y399000D1*
Y398000D1*
Y397000D1*
Y396000D1*
Y395000D1*
Y394000D1*
Y393000D1*
Y392000D1*
Y391000D1*
Y390000D1*
Y389000D1*
Y388000D1*
Y387000D1*
Y386000D1*
Y385000D1*
Y384000D1*
Y383000D1*
Y382000D1*
Y381000D1*
Y380000D1*
Y379000D1*
Y378000D1*
Y377000D1*
Y376000D1*
Y375000D1*
Y374000D1*
Y373000D1*
Y372000D1*
Y371000D1*
Y370000D1*
Y369000D1*
Y368000D1*
Y367000D1*
Y366000D1*
Y365000D1*
Y364000D1*
Y363000D1*
Y362000D1*
Y361000D1*
Y360000D1*
Y359000D1*
Y358000D1*
Y357000D1*
Y356000D1*
Y355000D1*
Y354000D1*
Y353000D1*
Y352000D1*
Y351000D1*
Y350000D1*
Y349000D1*
Y348000D1*
Y347000D1*
Y346000D1*
Y345000D1*
Y344000D1*
Y343000D1*
Y342000D1*
X-1048000Y440000D2*
Y439000D1*
Y438000D1*
Y437000D1*
Y436000D1*
Y435000D1*
Y434000D1*
X-1042000D1*
Y433000D1*
Y432000D1*
Y431000D1*
Y430000D1*
Y429000D1*
Y428000D1*
Y427000D1*
Y426000D1*
Y425000D1*
Y424000D1*
Y423000D1*
X-1036000D1*
Y422000D1*
Y421000D1*
Y420000D1*
Y419000D1*
Y418000D1*
Y417000D1*
X-1030000D1*
Y416000D1*
Y415000D1*
Y414000D1*
Y413000D1*
Y412000D1*
Y411000D1*
Y410000D1*
Y409000D1*
Y408000D1*
Y407000D1*
Y406000D1*
Y405000D1*
X-1024000D1*
Y404000D1*
Y403000D1*
Y402000D1*
Y401000D1*
Y400000D1*
Y399000D1*
X-1019000D1*
Y398000D1*
Y397000D1*
Y396000D1*
Y395000D1*
Y394000D1*
Y393000D1*
Y392000D1*
Y391000D1*
Y390000D1*
Y389000D1*
Y388000D1*
X-1013000D1*
Y387000D1*
Y386000D1*
Y385000D1*
Y384000D1*
Y383000D1*
X-1006000Y440000D2*
Y439000D1*
Y438000D1*
Y437000D1*
Y436000D1*
Y435000D1*
Y434000D1*
Y433000D1*
Y432000D1*
Y431000D1*
Y430000D1*
Y429000D1*
Y428000D1*
Y427000D1*
Y426000D1*
Y425000D1*
Y424000D1*
Y423000D1*
Y422000D1*
Y421000D1*
Y420000D1*
Y419000D1*
Y418000D1*
Y417000D1*
Y416000D1*
Y415000D1*
Y414000D1*
Y413000D1*
Y412000D1*
Y411000D1*
Y410000D1*
Y409000D1*
Y408000D1*
Y407000D1*
Y406000D1*
Y405000D1*
Y404000D1*
Y403000D1*
Y402000D1*
Y401000D1*
Y400000D1*
Y399000D1*
Y398000D1*
Y397000D1*
Y396000D1*
Y395000D1*
Y394000D1*
Y393000D1*
Y392000D1*
Y391000D1*
Y390000D1*
Y389000D1*
Y388000D1*
Y387000D1*
Y386000D1*
Y385000D1*
Y384000D1*
Y383000D1*
X-989000Y440000D2*
Y439000D1*
Y438000D1*
Y437000D1*
Y436000D1*
Y435000D1*
Y434000D1*
Y433000D1*
Y432000D1*
Y431000D1*
Y430000D1*
Y429000D1*
Y428000D1*
Y427000D1*
Y426000D1*
Y425000D1*
Y424000D1*
Y423000D1*
Y422000D1*
Y421000D1*
Y420000D1*
Y419000D1*
Y418000D1*
Y417000D1*
Y416000D1*
Y415000D1*
Y414000D1*
Y413000D1*
Y412000D1*
Y411000D1*
Y410000D1*
Y409000D1*
Y408000D1*
Y407000D1*
Y406000D1*
Y405000D1*
Y404000D1*
Y403000D1*
Y402000D1*
Y401000D1*
Y400000D1*
Y399000D1*
Y398000D1*
Y397000D1*
Y396000D1*
Y395000D1*
Y394000D1*
Y393000D1*
Y392000D1*
Y391000D1*
Y390000D1*
Y389000D1*
Y388000D1*
Y387000D1*
Y386000D1*
Y385000D1*
Y384000D1*
Y383000D1*
Y382000D1*
Y381000D1*
Y380000D1*
Y379000D1*
Y378000D1*
Y377000D1*
Y376000D1*
Y375000D1*
Y374000D1*
Y373000D1*
Y372000D1*
Y371000D1*
Y370000D1*
Y369000D1*
Y368000D1*
Y367000D1*
Y366000D1*
Y365000D1*
Y364000D1*
Y363000D1*
Y362000D1*
Y361000D1*
Y360000D1*
Y359000D1*
Y358000D1*
Y357000D1*
Y356000D1*
Y355000D1*
Y354000D1*
Y353000D1*
Y352000D1*
Y351000D1*
Y350000D1*
Y349000D1*
Y348000D1*
Y347000D1*
Y346000D1*
Y345000D1*
Y344000D1*
Y343000D1*
Y342000D1*
X-1434000Y423000D2*
Y422000D1*
Y421000D1*
Y420000D1*
Y419000D1*
Y418000D1*
Y417000D1*
Y416000D1*
Y415000D1*
Y414000D1*
Y413000D1*
Y412000D1*
Y411000D1*
Y410000D1*
Y409000D1*
Y408000D1*
Y407000D1*
Y406000D1*
Y405000D1*
Y404000D1*
Y403000D1*
Y402000D1*
Y401000D1*
Y400000D1*
Y399000D1*
Y398000D1*
Y397000D1*
Y396000D1*
Y395000D1*
Y394000D1*
Y393000D1*
Y392000D1*
Y391000D1*
Y390000D1*
Y389000D1*
Y388000D1*
Y387000D1*
Y386000D1*
Y385000D1*
Y384000D1*
Y383000D1*
Y382000D1*
Y381000D1*
Y380000D1*
Y379000D1*
Y378000D1*
Y377000D1*
Y376000D1*
Y375000D1*
Y374000D1*
Y373000D1*
Y372000D1*
Y371000D1*
Y370000D1*
Y369000D1*
Y368000D1*
Y367000D1*
Y366000D1*
Y365000D1*
Y364000D1*
Y363000D1*
Y362000D1*
Y361000D1*
Y360000D1*
Y359000D1*
Y358000D1*
Y357000D1*
Y356000D1*
Y355000D1*
Y354000D1*
Y353000D1*
Y352000D1*
Y351000D1*
Y350000D1*
Y349000D1*
Y348000D1*
Y347000D1*
Y346000D1*
Y345000D1*
Y344000D1*
Y343000D1*
Y342000D1*
X-1417000Y423000D2*
Y422000D1*
Y421000D1*
Y420000D1*
Y419000D1*
Y418000D1*
Y417000D1*
Y416000D1*
Y415000D1*
Y414000D1*
Y413000D1*
Y412000D1*
Y411000D1*
Y410000D1*
Y409000D1*
Y408000D1*
Y407000D1*
Y406000D1*
Y405000D1*
Y404000D1*
Y403000D1*
Y402000D1*
Y401000D1*
Y400000D1*
Y399000D1*
Y398000D1*
Y397000D1*
Y396000D1*
Y395000D1*
Y394000D1*
Y393000D1*
Y392000D1*
Y391000D1*
Y390000D1*
Y389000D1*
Y388000D1*
Y387000D1*
Y386000D1*
Y385000D1*
Y384000D1*
Y383000D1*
Y382000D1*
Y381000D1*
Y380000D1*
Y379000D1*
Y378000D1*
Y377000D1*
Y376000D1*
Y375000D1*
Y374000D1*
Y373000D1*
Y372000D1*
Y371000D1*
Y370000D1*
Y369000D1*
Y368000D1*
Y367000D1*
Y366000D1*
Y365000D1*
Y364000D1*
Y363000D1*
Y362000D1*
Y361000D1*
Y360000D1*
Y359000D1*
Y358000D1*
Y357000D1*
Y356000D1*
Y355000D1*
Y354000D1*
Y353000D1*
Y352000D1*
Y351000D1*
Y350000D1*
Y349000D1*
Y348000D1*
Y347000D1*
Y346000D1*
Y345000D1*
Y344000D1*
Y343000D1*
Y342000D1*
X-1264000Y423000D2*
Y422000D1*
Y421000D1*
Y420000D1*
Y419000D1*
Y418000D1*
Y417000D1*
Y416000D1*
Y415000D1*
Y414000D1*
Y413000D1*
Y412000D1*
Y411000D1*
Y410000D1*
Y409000D1*
Y408000D1*
Y407000D1*
Y406000D1*
Y405000D1*
Y404000D1*
Y403000D1*
Y402000D1*
Y401000D1*
Y400000D1*
Y399000D1*
Y398000D1*
Y397000D1*
Y396000D1*
Y395000D1*
Y394000D1*
Y393000D1*
Y392000D1*
Y391000D1*
Y390000D1*
Y389000D1*
Y388000D1*
Y387000D1*
Y386000D1*
Y385000D1*
Y384000D1*
Y383000D1*
Y382000D1*
Y381000D1*
Y380000D1*
Y379000D1*
Y378000D1*
Y377000D1*
Y376000D1*
Y375000D1*
Y374000D1*
Y373000D1*
Y372000D1*
Y371000D1*
Y370000D1*
Y369000D1*
Y368000D1*
Y367000D1*
Y366000D1*
Y365000D1*
Y364000D1*
Y363000D1*
Y362000D1*
Y361000D1*
Y360000D1*
Y359000D1*
Y358000D1*
Y357000D1*
Y356000D1*
Y355000D1*
Y354000D1*
Y353000D1*
Y352000D1*
Y351000D1*
Y350000D1*
Y349000D1*
Y348000D1*
Y347000D1*
Y346000D1*
Y345000D1*
Y344000D1*
Y343000D1*
Y342000D1*
X-1247000Y423000D2*
Y422000D1*
Y421000D1*
Y420000D1*
Y419000D1*
Y418000D1*
Y417000D1*
Y416000D1*
Y415000D1*
Y414000D1*
Y413000D1*
Y412000D1*
Y411000D1*
Y410000D1*
Y409000D1*
Y408000D1*
Y407000D1*
Y406000D1*
Y405000D1*
Y404000D1*
Y403000D1*
Y402000D1*
Y401000D1*
Y400000D1*
Y399000D1*
Y398000D1*
Y397000D1*
Y396000D1*
Y395000D1*
Y394000D1*
Y393000D1*
Y392000D1*
Y391000D1*
Y390000D1*
Y389000D1*
Y388000D1*
Y387000D1*
Y386000D1*
Y385000D1*
Y384000D1*
Y383000D1*
Y382000D1*
Y381000D1*
Y380000D1*
Y379000D1*
Y378000D1*
Y377000D1*
Y376000D1*
Y375000D1*
Y374000D1*
Y373000D1*
Y372000D1*
Y371000D1*
Y370000D1*
Y369000D1*
Y368000D1*
Y367000D1*
Y366000D1*
Y365000D1*
Y364000D1*
Y363000D1*
Y362000D1*
Y361000D1*
Y360000D1*
Y359000D1*
Y358000D1*
Y357000D1*
Y356000D1*
Y355000D1*
Y354000D1*
Y353000D1*
Y352000D1*
Y351000D1*
Y350000D1*
Y349000D1*
Y348000D1*
Y347000D1*
Y346000D1*
Y345000D1*
Y344000D1*
Y343000D1*
Y342000D1*
X-1148000Y423000D2*
Y422000D1*
Y421000D1*
Y420000D1*
Y419000D1*
Y418000D1*
Y417000D1*
Y416000D1*
Y415000D1*
Y414000D1*
Y413000D1*
Y412000D1*
Y411000D1*
Y410000D1*
Y409000D1*
Y408000D1*
Y407000D1*
Y406000D1*
Y405000D1*
Y404000D1*
Y403000D1*
Y402000D1*
Y401000D1*
Y400000D1*
Y399000D1*
Y398000D1*
Y397000D1*
Y396000D1*
Y395000D1*
Y394000D1*
Y393000D1*
Y392000D1*
Y391000D1*
Y390000D1*
Y389000D1*
Y388000D1*
Y387000D1*
Y386000D1*
Y385000D1*
Y384000D1*
Y383000D1*
Y382000D1*
Y381000D1*
Y380000D1*
Y379000D1*
Y378000D1*
Y377000D1*
Y376000D1*
Y375000D1*
Y374000D1*
Y373000D1*
Y372000D1*
Y371000D1*
Y370000D1*
Y369000D1*
Y368000D1*
Y367000D1*
Y366000D1*
Y365000D1*
Y364000D1*
Y363000D1*
Y362000D1*
Y361000D1*
Y360000D1*
Y359000D1*
X-1106000Y423000D2*
Y422000D1*
Y421000D1*
Y420000D1*
Y419000D1*
Y418000D1*
Y417000D1*
Y416000D1*
Y415000D1*
Y414000D1*
Y413000D1*
Y412000D1*
Y411000D1*
Y410000D1*
Y409000D1*
Y408000D1*
Y407000D1*
Y406000D1*
Y405000D1*
Y404000D1*
Y403000D1*
Y402000D1*
Y401000D1*
Y400000D1*
Y399000D1*
Y398000D1*
Y397000D1*
Y396000D1*
Y395000D1*
Y394000D1*
Y393000D1*
Y392000D1*
Y391000D1*
Y390000D1*
Y389000D1*
Y388000D1*
Y387000D1*
Y386000D1*
Y385000D1*
Y384000D1*
Y383000D1*
Y382000D1*
Y381000D1*
Y380000D1*
Y379000D1*
Y378000D1*
Y377000D1*
Y376000D1*
Y375000D1*
Y374000D1*
Y373000D1*
Y372000D1*
Y371000D1*
Y370000D1*
Y369000D1*
Y368000D1*
Y367000D1*
Y366000D1*
Y365000D1*
Y364000D1*
Y363000D1*
Y362000D1*
Y361000D1*
Y360000D1*
Y359000D1*
X-1487000Y417000D2*
Y416000D1*
Y415000D1*
Y414000D1*
Y413000D1*
Y412000D1*
Y411000D1*
X-1481000D1*
Y410000D1*
Y409000D1*
Y408000D1*
Y407000D1*
Y406000D1*
Y405000D1*
Y404000D1*
Y403000D1*
Y402000D1*
Y401000D1*
Y400000D1*
Y399000D1*
Y398000D1*
Y397000D1*
Y396000D1*
Y395000D1*
Y394000D1*
Y393000D1*
Y392000D1*
Y391000D1*
Y390000D1*
Y389000D1*
Y388000D1*
Y387000D1*
Y386000D1*
Y385000D1*
Y384000D1*
Y383000D1*
Y382000D1*
Y381000D1*
Y380000D1*
Y379000D1*
Y378000D1*
Y377000D1*
Y376000D1*
Y375000D1*
Y374000D1*
Y373000D1*
Y372000D1*
Y371000D1*
Y370000D1*
Y369000D1*
Y368000D1*
Y367000D1*
Y366000D1*
Y365000D1*
Y364000D1*
Y363000D1*
Y362000D1*
Y361000D1*
Y360000D1*
Y359000D1*
Y358000D1*
Y357000D1*
Y356000D1*
Y355000D1*
Y354000D1*
Y353000D1*
Y352000D1*
Y351000D1*
Y350000D1*
Y349000D1*
Y348000D1*
Y347000D1*
Y346000D1*
X-1487000D1*
Y345000D1*
Y344000D1*
Y343000D1*
Y342000D1*
X-1346000Y411000D2*
Y410000D1*
Y409000D1*
Y408000D1*
Y407000D1*
Y406000D1*
Y405000D1*
Y404000D1*
Y403000D1*
Y402000D1*
Y401000D1*
Y400000D1*
Y399000D1*
Y398000D1*
Y397000D1*
Y396000D1*
Y395000D1*
Y394000D1*
Y393000D1*
X-1352000D1*
Y392000D1*
Y391000D1*
Y390000D1*
Y389000D1*
Y388000D1*
Y387000D1*
Y386000D1*
Y385000D1*
Y384000D1*
Y383000D1*
Y382000D1*
X-1340000Y411000D2*
Y410000D1*
Y409000D1*
Y408000D1*
Y407000D1*
Y406000D1*
Y405000D1*
Y404000D1*
Y403000D1*
Y402000D1*
Y401000D1*
Y400000D1*
Y399000D1*
Y398000D1*
X-1335000D1*
Y397000D1*
Y396000D1*
Y395000D1*
Y394000D1*
Y393000D1*
Y392000D1*
Y391000D1*
Y390000D1*
Y389000D1*
Y388000D1*
Y387000D1*
Y386000D1*
Y385000D1*
Y384000D1*
Y383000D1*
Y382000D1*
X-1652000Y399000D2*
Y398000D1*
Y397000D1*
Y396000D1*
Y395000D1*
Y394000D1*
Y393000D1*
Y392000D1*
Y391000D1*
Y390000D1*
Y389000D1*
Y388000D1*
Y387000D1*
Y386000D1*
Y385000D1*
Y384000D1*
Y383000D1*
Y382000D1*
Y381000D1*
Y380000D1*
Y379000D1*
Y378000D1*
Y377000D1*
Y376000D1*
Y375000D1*
X-1657000D1*
Y374000D1*
Y373000D1*
Y372000D1*
Y371000D1*
Y370000D1*
Y369000D1*
Y368000D1*
Y367000D1*
Y366000D1*
Y365000D1*
Y364000D1*
X-1663000D1*
Y363000D1*
Y362000D1*
Y361000D1*
Y360000D1*
Y359000D1*
Y358000D1*
Y357000D1*
Y356000D1*
Y355000D1*
Y354000D1*
Y353000D1*
Y352000D1*
Y351000D1*
Y350000D1*
Y349000D1*
Y348000D1*
Y347000D1*
Y346000D1*
X-1669000D1*
Y345000D1*
Y344000D1*
Y343000D1*
Y342000D1*
Y341000D1*
X-1675000D1*
Y340000D1*
Y339000D1*
Y338000D1*
Y337000D1*
Y336000D1*
Y335000D1*
Y334000D1*
Y333000D1*
Y332000D1*
Y331000D1*
Y330000D1*
Y329000D1*
Y328000D1*
Y327000D1*
Y326000D1*
Y325000D1*
Y324000D1*
Y323000D1*
X-1681000D1*
Y322000D1*
Y321000D1*
Y320000D1*
Y319000D1*
Y318000D1*
X-1048000Y399000D2*
Y398000D1*
Y397000D1*
Y396000D1*
Y395000D1*
Y394000D1*
Y393000D1*
Y392000D1*
Y391000D1*
Y390000D1*
Y389000D1*
Y388000D1*
Y387000D1*
Y386000D1*
Y385000D1*
Y384000D1*
Y383000D1*
Y382000D1*
Y381000D1*
Y380000D1*
Y379000D1*
Y378000D1*
Y377000D1*
Y376000D1*
Y375000D1*
Y374000D1*
Y373000D1*
Y372000D1*
Y371000D1*
Y370000D1*
Y369000D1*
Y368000D1*
Y367000D1*
Y366000D1*
Y365000D1*
Y364000D1*
Y363000D1*
Y362000D1*
Y361000D1*
Y360000D1*
Y359000D1*
Y358000D1*
Y357000D1*
Y356000D1*
Y355000D1*
Y354000D1*
Y353000D1*
Y352000D1*
Y351000D1*
Y350000D1*
Y349000D1*
Y348000D1*
Y347000D1*
Y346000D1*
Y345000D1*
Y344000D1*
Y343000D1*
Y342000D1*
X-1042000Y399000D2*
Y398000D1*
Y397000D1*
Y396000D1*
Y395000D1*
Y394000D1*
Y393000D1*
X-1036000D1*
Y392000D1*
Y391000D1*
Y390000D1*
Y389000D1*
Y388000D1*
Y387000D1*
Y386000D1*
Y385000D1*
Y384000D1*
Y383000D1*
Y382000D1*
Y381000D1*
X-1030000D1*
Y380000D1*
Y379000D1*
Y378000D1*
Y377000D1*
Y376000D1*
Y375000D1*
X-1024000D1*
Y374000D1*
Y373000D1*
Y372000D1*
Y371000D1*
Y370000D1*
X-1018000D1*
Y369000D1*
Y368000D1*
Y367000D1*
Y366000D1*
Y365000D1*
Y364000D1*
Y363000D1*
Y362000D1*
Y361000D1*
Y360000D1*
Y359000D1*
Y358000D1*
X-1012000D1*
Y357000D1*
Y356000D1*
Y355000D1*
Y354000D1*
Y353000D1*
Y352000D1*
X-1006000D1*
Y351000D1*
Y350000D1*
Y349000D1*
Y348000D1*
Y347000D1*
Y346000D1*
Y345000D1*
Y344000D1*
Y343000D1*
Y342000D1*
X-1498000Y394000D2*
Y393000D1*
Y392000D1*
Y391000D1*
Y390000D1*
Y389000D1*
Y388000D1*
Y387000D1*
Y386000D1*
Y385000D1*
Y384000D1*
Y383000D1*
Y382000D1*
Y381000D1*
Y380000D1*
Y379000D1*
Y378000D1*
Y377000D1*
Y376000D1*
Y375000D1*
Y374000D1*
Y373000D1*
Y372000D1*
Y371000D1*
Y370000D1*
Y369000D1*
Y368000D1*
Y367000D1*
Y366000D1*
Y365000D1*
X-1558000Y382000D2*
Y381000D1*
Y380000D1*
Y379000D1*
Y378000D1*
Y377000D1*
Y376000D1*
Y375000D1*
Y374000D1*
Y373000D1*
Y372000D1*
Y371000D1*
Y370000D1*
Y369000D1*
Y368000D1*
Y367000D1*
Y366000D1*
Y365000D1*
Y364000D1*
Y363000D1*
Y362000D1*
Y361000D1*
Y360000D1*
Y359000D1*
Y358000D1*
Y357000D1*
Y356000D1*
Y355000D1*
Y354000D1*
Y353000D1*
Y352000D1*
Y351000D1*
Y350000D1*
Y349000D1*
Y348000D1*
Y347000D1*
Y346000D1*
X-1552000D1*
Y345000D1*
Y344000D1*
Y343000D1*
Y342000D1*
X-1540000Y382000D2*
Y381000D1*
Y380000D1*
Y379000D1*
Y378000D1*
Y377000D1*
Y376000D1*
Y375000D1*
Y374000D1*
Y373000D1*
Y372000D1*
Y371000D1*
Y370000D1*
Y369000D1*
Y368000D1*
Y367000D1*
Y366000D1*
Y365000D1*
X-1358000D2*
Y364000D1*
Y363000D1*
Y362000D1*
Y361000D1*
Y360000D1*
Y359000D1*
Y358000D1*
X-1364000D1*
Y357000D1*
Y356000D1*
Y355000D1*
Y354000D1*
Y353000D1*
Y352000D1*
Y351000D1*
Y350000D1*
Y349000D1*
Y348000D1*
Y347000D1*
Y346000D1*
Y345000D1*
Y344000D1*
Y343000D1*
Y342000D1*
X-1323000Y365000D2*
Y364000D1*
Y363000D1*
Y362000D1*
Y361000D1*
Y360000D1*
Y359000D1*
Y358000D1*
Y357000D1*
Y356000D1*
Y355000D1*
Y354000D1*
Y353000D1*
Y352000D1*
Y351000D1*
Y350000D1*
Y349000D1*
Y348000D1*
Y347000D1*
Y346000D1*
Y345000D1*
Y344000D1*
Y343000D1*
Y342000D1*
M02*
